{"asset":{"version":"2.0","generator":"Blockbench 5.1.6 glTF exporter"},"scenes":[{"nodes":[3,8,10,12,14,16,18,20,22,24,26,28,31,33,35,37,39,41,43,45,47],"name":"blockbench_export"}],"scene":0,"nodes":[{"translation":[0,-0.375,0.125],"name":"chest1","mesh":0},{"translation":[0,-0.375,-0.25],"name":"chest2","mesh":1},{"rotation":[-0.06540312923014306,0,0,0.9978589232386035],"translation":[0,0.09375,0.3125],"name":"clavicle","mesh":2},{"translation":[0,2.375,-0.125],"name":"torso","children":[0,1,2]},{"translation":[0,-0.0625,0],"name":"pelvis1","mesh":3},{"translation":[0,-0.0625,0],"name":"pelvis3","mesh":4},{"translation":[0,-0.0625,-0.375],"name":"pelvis2","mesh":5},{"translation":[0,-0.0625,-0.375],"name":"pelvis4","mesh":6},{"translation":[0,1.9375,-0.1875],"name":"pelvis","children":[4,5,6,7]},{"rotation":[-0.31532298580502816,0.14715371192005974,-0.2254554691931902,0.9099928742039844],"translation":[-0.125,-0.25,0.3125],"name":"thighR","mesh":7},{"translation":[-0.25,1.8125,-0.1875],"name":"thighL","children":[9]},{"rotation":[-0.31532298580502816,-0.14715371192005974,0.2254554691931902,0.9099928742039844],"translation":[0.125,-0.25,0.3125],"name":"thighR","mesh":8},{"translation":[0.25,1.8125,-0.1875],"name":"thighR","children":[11]},{"rotation":[0.10574697555280857,0.02587612029395101,-0.23627316777286014,0.9655687410798595],"translation":[-0.375,-0.6875,-0.375],"name":"mesh","mesh":9},{"translation":[-0.375,1.125,0],"name":"kneeL","children":[13]},{"rotation":[0.10574697555280857,-0.02587612029395101,0.23627316777286014,0.9655687410798595],"translation":[0.375,-0.6875,-0.375],"name":"mesh","mesh":10},{"translation":[0.375,1.125,0],"name":"kneeR","children":[15]},{"rotation":[-0.15036413574154062,-0.28527993394720497,0.45517544981119534,0.8299525865125993],"translation":[-0.03125,-0.125,0.25],"name":"mesh","mesh":11},{"translation":[-0.3125,2.8125,-0.4375],"name":"shoulderL","children":[17]},{"rotation":[-0.15036413574154062,0.28527993394720497,-0.45517544981119534,0.8299525865125993],"translation":[0.03125,-0.125,0.25],"name":"mesh","mesh":12},{"translation":[0.3125,2.8125,-0.4375],"name":"shoulderR","children":[19]},{"rotation":[-0.12634926582685857,-0.13987356562459158,-0.2570401714788927,0.9478404923353815],"translation":[-0.28125,-0.3125,0],"name":"mesh","mesh":13},{"translation":[-0.3125,2.6875,-0.375],"name":"armL","children":[21]},{"rotation":[-0.12634926582685857,0.13987356562459158,0.2570401714788927,0.9478404923353815],"translation":[0.28125,-0.3125,0],"name":"mesh","mesh":14},{"translation":[0.3125,2.6875,-0.375],"name":"armR","children":[23]},{"rotation":[-0.5636320868944297,-0.12221403871615164,-0.061177508494044804,0.8146409711143786],"translation":[-0.03125,-0.1875,0.1875],"name":"mesh","mesh":15},{"translation":[-0.5,2.25,-0.4375],"name":"forearmL","children":[25]},{"rotation":[-0.5636320868944297,0.12221403871615164,0.061177508494044804,0.8146409711143786],"translation":[0.03125,-0.1875,0.1875],"name":"mesh","mesh":16},{"translation":[0.5,2.25,-0.4375],"name":"forearmR","children":[27]},{"translation":[0,0.4375,-0.0625],"name":"pyramid","mesh":17},{"translation":[0,0.4375,-0.0625],"name":"pyramid2","mesh":18},{"translation":[0,2.9375,-0.25],"name":"head","children":[29,30]},{"rotation":[0.03975693877880492,0.0038370353801493885,-0.4323007613614633,0.9008444453426624],"translation":[-0.057107062730466895,-0.12784518401260114,0.125],"name":"mesh","mesh":19},{"rotation":[0,0,-0.6915130557822694,0.7223639620597556],"translation":[0.375,1.9375,-0.1875],"name":"skirtR","children":[32]},{"rotation":[0.03975693877880492,-0.0038370353801493885,0.4323007613614633,0.9008444453426624],"translation":[0.057107062730466895,-0.12784518401260114,0.125],"name":"mesh","mesh":20},{"rotation":[0,0,0.6915130557822694,0.7223639620597556],"translation":[-0.375,1.9375,-0.1875],"name":"skirtL","children":[34]},{"rotation":[-0.1679136280104189,0.28304636804519967,-0.33623711010954427,0.8824026138050488],"translation":[0.13294069052646484,-0.07358330529473545,0.1875],"name":"mesh","mesh":21},{"rotation":[0,0,-0.6915130557822694,0.7223639620597556],"translation":[0.5625,1.625,-0.25],"name":"skirtR2","children":[36]},{"rotation":[-0.1679136280104189,-0.28304636804519967,0.33623711010954427,0.8824026138050488],"translation":[-0.13294069052646484,-0.07358330529473545,0.1875],"name":"mesh","mesh":22},{"rotation":[0,0,0.6915130557822694,0.7223639620597556],"translation":[-0.5625,1.625,-0.25],"name":"skirtL2","children":[38]},{"rotation":[-0.7317095900861755,0.46338468985890624,-0.14480359258147352,0.47844291671607464],"translation":[-0.0895836586499344,0.36622650335766593,0],"name":"mesh","mesh":23},{"rotation":[0,0,0.6915130557822694,0.7223639620597556],"translation":[-0.375,2.4375,-0.6875],"name":"wingL2","children":[40]},{"rotation":[-0.7317095900861755,-0.46338468985890624,0.14480359258147352,0.47844291671607464],"translation":[0.0895836586499344,0.36622650335766593,0],"name":"mesh","mesh":24},{"rotation":[0,0,-0.6915130557822694,0.7223639620597556],"translation":[0.375,2.4375,-0.6875],"name":"wingR2","children":[42]},{"rotation":[-0.13925255760757949,0.3960769486169437,0.4176502908682609,0.8057915428395211],"translation":[0.6738305912363536,-0.21145013417162817,0.18230850218179362],"name":"mesh","mesh":25},{"rotation":[-0.21955784318740698,-0.4969929989490323,0.8211979340866487,0.17443126308767426],"translation":[-0.25,2.875,-0.8125],"name":"wingL1","children":[44]},{"rotation":[-0.13925255760757949,-0.3960769486169437,-0.4176502908682609,0.8057915428395211],"translation":[-0.6738305912363536,-0.21145013417162817,0.18230850218179362],"name":"mesh","mesh":26},{"rotation":[-0.21955784318740698,0.4969929989490323,-0.8211979340866487,0.17443126308767426],"translation":[0.25,2.875,-0.8125],"name":"wingR1","children":[46]}],"bufferViews":[{"buffer":0,"byteOffset":0,"byteLength":384,"target":34962,"byteStride":12},{"buffer":0,"byteOffset":384,"byteLength":384,"target":34962,"byteStride":12},{"buffer":0,"byteOffset":768,"byteLength":256,"target":34962,"byteStride":8},{"buffer":0,"byteOffset":1024,"byteLength":84,"target":34963},{"buffer":0,"byteOffset":1108,"byteLength":324,"target":34962,"byteStride":12},{"buffer":0,"byteOffset":1432,"byteLength":324,"target":34962,"byteStride":12},{"buffer":0,"byteOffset":1756,"byteLength":216,"target":34962,"byteStride":8},{"buffer":0,"byteOffset":1972,"byteLength":80,"target":34963},{"buffer":0,"byteOffset":2052,"byteLength":552,"target":34962,"byteStride":12},{"buffer":0,"byteOffset":2604,"byteLength":552,"target":34962,"byteStride":12},{"buffer":0,"byteOffset":3156,"byteLength":368,"target":34962,"byteStride":8},{"buffer":0,"byteOffset":3524,"byteLength":96,"target":34963},{"buffer":0,"byteOffset":3620,"byteLength":288,"target":34962,"byteStride":12},{"buffer":0,"byteOffset":3908,"byteLength":288,"target":34962,"byteStride":12},{"buffer":0,"byteOffset":4196,"byteLength":192,"target":34962,"byteStride":8},{"buffer":0,"byteOffset":4388,"byteLength":72,"target":34963},{"buffer":0,"byteOffset":4460,"byteLength":288,"target":34962,"byteStride":12},{"buffer":0,"byteOffset":4748,"byteLength":288,"target":34962,"byteStride":12},{"buffer":0,"byteOffset":5036,"byteLength":192,"target":34962,"byteStride":8},{"buffer":0,"byteOffset":5228,"byteLength":72,"target":34963},{"buffer":0,"byteOffset":5300,"byteLength":288,"target":34962,"byteStride":12},{"buffer":0,"byteOffset":5588,"byteLength":288,"target":34962,"byteStride":12},{"buffer":0,"byteOffset":5876,"byteLength":192,"target":34962,"byteStride":8},{"buffer":0,"byteOffset":6068,"byteLength":72,"target":34963},{"buffer":0,"byteOffset":6140,"byteLength":288,"target":34962,"byteStride":12},{"buffer":0,"byteOffset":6428,"byteLength":288,"target":34962,"byteStride":12},{"buffer":0,"byteOffset":6716,"byteLength":192,"target":34962,"byteStride":8},{"buffer":0,"byteOffset":6908,"byteLength":72,"target":34963},{"buffer":0,"byteOffset":6980,"byteLength":336,"target":34962,"byteStride":12},{"buffer":0,"byteOffset":7316,"byteLength":336,"target":34962,"byteStride":12},{"buffer":0,"byteOffset":7652,"byteLength":224,"target":34962,"byteStride":8},{"buffer":0,"byteOffset":7876,"byteLength":72,"target":34963},{"buffer":0,"byteOffset":7948,"byteLength":336,"target":34962,"byteStride":12},{"buffer":0,"byteOffset":8284,"byteLength":336,"target":34962,"byteStride":12},{"buffer":0,"byteOffset":8620,"byteLength":224,"target":34962,"byteStride":8},{"buffer":0,"byteOffset":8844,"byteLength":72,"target":34963},{"buffer":0,"byteOffset":8916,"byteLength":312,"target":34962,"byteStride":12},{"buffer":0,"byteOffset":9228,"byteLength":312,"target":34962,"byteStride":12},{"buffer":0,"byteOffset":9540,"byteLength":208,"target":34962,"byteStride":8},{"buffer":0,"byteOffset":9748,"byteLength":72,"target":34963},{"buffer":0,"byteOffset":9820,"byteLength":312,"target":34962,"byteStride":12},{"buffer":0,"byteOffset":10132,"byteLength":312,"target":34962,"byteStride":12},{"buffer":0,"byteOffset":10444,"byteLength":208,"target":34962,"byteStride":8},{"buffer":0,"byteOffset":10652,"byteLength":72,"target":34963},{"buffer":0,"byteOffset":10724,"byteLength":180,"target":34962,"byteStride":12},{"buffer":0,"byteOffset":10904,"byteLength":180,"target":34962,"byteStride":12},{"buffer":0,"byteOffset":11084,"byteLength":120,"target":34962,"byteStride":8},{"buffer":0,"byteOffset":11204,"byteLength":32,"target":34963},{"buffer":0,"byteOffset":11236,"byteLength":180,"target":34962,"byteStride":12},{"buffer":0,"byteOffset":11416,"byteLength":180,"target":34962,"byteStride":12},{"buffer":0,"byteOffset":11596,"byteLength":120,"target":34962,"byteStride":8},{"buffer":0,"byteOffset":11716,"byteLength":32,"target":34963},{"buffer":0,"byteOffset":11748,"byteLength":240,"target":34962,"byteStride":12},{"buffer":0,"byteOffset":11988,"byteLength":240,"target":34962,"byteStride":12},{"buffer":0,"byteOffset":12228,"byteLength":160,"target":34962,"byteStride":8},{"buffer":0,"byteOffset":12388,"byteLength":48,"target":34963},{"buffer":0,"byteOffset":12436,"byteLength":240,"target":34962,"byteStride":12},{"buffer":0,"byteOffset":12676,"byteLength":240,"target":34962,"byteStride":12},{"buffer":0,"byteOffset":12916,"byteLength":160,"target":34962,"byteStride":8},{"buffer":0,"byteOffset":13076,"byteLength":48,"target":34963},{"buffer":0,"byteOffset":13124,"byteLength":228,"target":34962,"byteStride":12},{"buffer":0,"byteOffset":13352,"byteLength":228,"target":34962,"byteStride":12},{"buffer":0,"byteOffset":13580,"byteLength":152,"target":34962,"byteStride":8},{"buffer":0,"byteOffset":13732,"byteLength":44,"target":34963},{"buffer":0,"byteOffset":13776,"byteLength":228,"target":34962,"byteStride":12},{"buffer":0,"byteOffset":14004,"byteLength":228,"target":34962,"byteStride":12},{"buffer":0,"byteOffset":14232,"byteLength":152,"target":34962,"byteStride":8},{"buffer":0,"byteOffset":14384,"byteLength":44,"target":34963},{"buffer":0,"byteOffset":14428,"byteLength":432,"target":34962,"byteStride":12},{"buffer":0,"byteOffset":14860,"byteLength":432,"target":34962,"byteStride":12},{"buffer":0,"byteOffset":15292,"byteLength":288,"target":34962,"byteStride":8},{"buffer":0,"byteOffset":15580,"byteLength":72,"target":34963},{"buffer":0,"byteOffset":15652,"byteLength":720,"target":34962,"byteStride":12},{"buffer":0,"byteOffset":16372,"byteLength":720,"target":34962,"byteStride":12},{"buffer":0,"byteOffset":17092,"byteLength":480,"target":34962,"byteStride":8},{"buffer":0,"byteOffset":17572,"byteLength":120,"target":34963},{"buffer":0,"byteOffset":17692,"byteLength":180,"target":34962,"byteStride":12},{"buffer":0,"byteOffset":17872,"byteLength":180,"target":34962,"byteStride":12},{"buffer":0,"byteOffset":18052,"byteLength":120,"target":34962,"byteStride":8},{"buffer":0,"byteOffset":18172,"byteLength":32,"target":34963},{"buffer":0,"byteOffset":18204,"byteLength":180,"target":34962,"byteStride":12},{"buffer":0,"byteOffset":18384,"byteLength":180,"target":34962,"byteStride":12},{"buffer":0,"byteOffset":18564,"byteLength":120,"target":34962,"byteStride":8},{"buffer":0,"byteOffset":18684,"byteLength":32,"target":34963},{"buffer":0,"byteOffset":18716,"byteLength":180,"target":34962,"byteStride":12},{"buffer":0,"byteOffset":18896,"byteLength":180,"target":34962,"byteStride":12},{"buffer":0,"byteOffset":19076,"byteLength":120,"target":34962,"byteStride":8},{"buffer":0,"byteOffset":19196,"byteLength":32,"target":34963},{"buffer":0,"byteOffset":19228,"byteLength":180,"target":34962,"byteStride":12},{"buffer":0,"byteOffset":19408,"byteLength":180,"target":34962,"byteStride":12},{"buffer":0,"byteOffset":19588,"byteLength":120,"target":34962,"byteStride":8},{"buffer":0,"byteOffset":19708,"byteLength":32,"target":34963},{"buffer":0,"byteOffset":19740,"byteLength":216,"target":34962,"byteStride":12},{"buffer":0,"byteOffset":19956,"byteLength":216,"target":34962,"byteStride":12},{"buffer":0,"byteOffset":20172,"byteLength":144,"target":34962,"byteStride":8},{"buffer":0,"byteOffset":20316,"byteLength":36,"target":34963},{"buffer":0,"byteOffset":20352,"byteLength":216,"target":34962,"byteStride":12},{"buffer":0,"byteOffset":20568,"byteLength":216,"target":34962,"byteStride":12},{"buffer":0,"byteOffset":20784,"byteLength":144,"target":34962,"byteStride":8},{"buffer":0,"byteOffset":20928,"byteLength":36,"target":34963},{"buffer":0,"byteOffset":20964,"byteLength":144,"target":34962,"byteStride":12},{"buffer":0,"byteOffset":21108,"byteLength":144,"target":34962,"byteStride":12},{"buffer":0,"byteOffset":21252,"byteLength":96,"target":34962,"byteStride":8},{"buffer":0,"byteOffset":21348,"byteLength":24,"target":34963},{"buffer":0,"byteOffset":21372,"byteLength":144,"target":34962,"byteStride":12},{"buffer":0,"byteOffset":21516,"byteLength":144,"target":34962,"byteStride":12},{"buffer":0,"byteOffset":21660,"byteLength":96,"target":34962,"byteStride":8},{"buffer":0,"byteOffset":21756,"byteLength":24,"target":34963}],"buffers":[{"byteLength":21780,"uri":"data:application/octet-stream;base64,"}],"accessors":[{"bufferView":0,"componentType":5126,"count":32,"max":[0.1875,0.8125,0.10000000149011612],"min":[-0.1875,0.25,-0.1875],"type":"VEC3"},{"bufferView":1,"componentType":5126,"count":32,"max":[1,0.7667139768600464,0.9578262567520142],"min":[-0.8273717761039734,-0.7546055316925049,-1],"type":"VEC3"},{"bufferView":2,"componentType":5126,"count":32,"max":[0.984375,0.109375],"min":[0.015625,0.015625],"type":"VEC2"},{"bufferView":3,"componentType":5123,"count":42,"max":[31],"min":[1],"type":"SCALAR"},{"bufferView":4,"componentType":5126,"count":27,"max":[0.1875,0.8125,0.1875],"min":[-0.1875,0.25,-0.0625],"type":"VEC3"},{"bufferView":5,"componentType":5126,"count":27,"max":[0.9284323453903198,0,1],"min":[-0.9284323453903198,-0.9320546388626099,-0.9805806875228882],"type":"VEC3"},{"bufferView":6,"componentType":5126,"count":27,"max":[0.47905001044273376,0.047500014305114746],"min":[0.015625,0],"type":"VEC2"},{"bufferView":7,"componentType":5123,"count":39,"max":[26],"min":[0],"type":"SCALAR"},{"bufferView":8,"componentType":5126,"count":46,"max":[0.25,0.4375,-0.0394078865647316],"min":[-0.25,0.03125,-0.8125],"type":"VEC3"},{"bufferView":9,"componentType":5126,"count":46,"max":[0.7950731515884399,0.9942455887794495,0.5684244632720947],"min":[-0.7950731515884399,-0.7241548895835876,-0.7079694271087646],"type":"VEC3"},{"bufferView":10,"componentType":5126,"count":46,"max":[0.921875,0.046875],"min":[0.015625,0.015625],"type":"VEC2"},{"bufferView":11,"componentType":5123,"count":48,"max":[45],"min":[0],"type":"SCALAR"},{"bufferView":12,"componentType":5126,"count":24,"max":[0.25,0.25,0.25],"min":[-0.25,0,-0.1875],"type":"VEC3"},{"bufferView":13,"componentType":5126,"count":24,"max":[0.8775749206542969,0.8574929237365723,0.7071067690849304],"min":[-0.8775749206542969,-0.986393928527832,-0.8320503234863281],"type":"VEC3"},{"bufferView":14,"componentType":5126,"count":24,"max":[0.734375,0.046875],"min":[0.390625,0.015625],"type":"VEC2"},{"bufferView":15,"componentType":5123,"count":36,"max":[23],"min":[0],"type":"SCALAR"},{"bufferView":16,"componentType":5126,"count":24,"max":[0.1875,0.3125,0.375],"min":[-0.1875,-0.15000000596046448,-0.1875],"type":"VEC3"},{"bufferView":17,"componentType":5126,"count":24,"max":[0.9633996486663818,0.9723873138427734,0.6887494325637817],"min":[-0.9633996486663818,-0.9015230536460876,-0.8797065019607544],"type":"VEC3"},{"bufferView":18,"componentType":5126,"count":24,"max":[0.359375,0.046875],"min":[0.015625,0.015625],"type":"VEC2"},{"bufferView":19,"componentType":5123,"count":36,"max":[23],"min":[0],"type":"SCALAR"},{"bufferView":20,"componentType":5126,"count":24,"max":[0.25,0.3125,0.3125],"min":[-0.25,0.0625,0.0625],"type":"VEC3"},{"bufferView":21,"componentType":5126,"count":24,"max":[0.5253177881240845,0.9701424837112427,0.8320503234863281],"min":[-0.5253177881240845,-0.5547001957893372,-1],"type":"VEC3"},{"bufferView":22,"componentType":5126,"count":24,"max":[0.359375,0.046875],"min":[0.015625,0.015625],"type":"VEC2"},{"bufferView":23,"componentType":5123,"count":36,"max":[23],"min":[0],"type":"SCALAR"},{"bufferView":24,"componentType":5126,"count":24,"max":[0.1875,0.3125,0.4375],"min":[-0.1875,-0.15000000596046448,0.0625],"type":"VEC3"},{"bufferView":25,"componentType":5126,"count":24,"max":[0.5547353625297546,0.9805806875228882,0.8797065019607544],"min":[-0.5547353625297546,-0.8064050078392029,-0.9417418837547302],"type":"VEC3"},{"bufferView":26,"componentType":5126,"count":24,"max":[0.734375,0.046875],"min":[0.390625,0.015625],"type":"VEC2"},{"bufferView":27,"componentType":5123,"count":36,"max":[23],"min":[0],"type":"SCALAR"},{"bufferView":28,"componentType":5126,"count":28,"max":[0.22219687700271606,0.5,0.007626249920576811],"min":[-0.10444187372922897,-0.14230374991893768,-0.25],"type":"VEC3"},{"bufferView":29,"componentType":5126,"count":28,"max":[0.9125913381576538,0.8243165016174316,0.9702081680297852],"min":[-0.9869567155838013,-0.4696767032146454,-0.9304729104042053],"type":"VEC3"},{"bufferView":30,"componentType":5126,"count":28,"max":[1,1],"min":[0,0],"type":"VEC2"},{"bufferView":31,"componentType":5123,"count":36,"max":[27],"min":[0],"type":"SCALAR"},{"bufferView":32,"componentType":5126,"count":28,"max":[0.10444187372922897,0.5,0.007626249920576811],"min":[-0.22219687700271606,-0.14230374991893768,-0.25],"type":"VEC3"},{"bufferView":33,"componentType":5126,"count":28,"max":[0.9869567155838013,0.8243165016174316,0.9702081680297852],"min":[-0.9125913381576538,-0.4696767032146454,-0.9304729104042053],"type":"VEC3"},{"bufferView":34,"componentType":5126,"count":28,"max":[1,1],"min":[0,0],"type":"VEC2"},{"bufferView":35,"componentType":5123,"count":36,"max":[27],"min":[0],"type":"SCALAR"},{"bufferView":36,"componentType":5126,"count":26,"max":[0.125,1.066490650177002,0.355546236038208],"min":[-0.125,-0.35824811458587646,-0.09794499725103378],"type":"VEC3"},{"bufferView":37,"componentType":5126,"count":26,"max":[0.8863102793693542,0.7689403891563416,0.9462108016014099],"min":[-0.950368344783783,-0.6089457273483276,-0.8209835886955261],"type":"VEC3"},{"bufferView":38,"componentType":5126,"count":26,"max":[1,1],"min":[0,0],"type":"VEC2"},{"bufferView":39,"componentType":5123,"count":36,"max":[25],"min":[0],"type":"SCALAR"},{"bufferView":40,"componentType":5126,"count":26,"max":[0.125,1.066490650177002,0.355546236038208],"min":[-0.125,-0.35824811458587646,-0.09794499725103378],"type":"VEC3"},{"bufferView":41,"componentType":5126,"count":26,"max":[0.950368344783783,0.7689403891563416,0.9462108016014099],"min":[-0.8863102793693542,-0.6089457273483276,-0.8209835886955261],"type":"VEC3"},{"bufferView":42,"componentType":5126,"count":26,"max":[1,1],"min":[0,0],"type":"VEC2"},{"bufferView":43,"componentType":5123,"count":36,"max":[25],"min":[0],"type":"SCALAR"},{"bufferView":44,"componentType":5126,"count":15,"max":[0.07690944522619247,0.4206048250198364,-0.048472754657268524],"min":[-0.026428833603858948,-0.027632098644971848,-0.3143965005874634],"type":"VEC3"},{"bufferView":45,"componentType":5126,"count":15,"max":[0.9900386333465576,0.5428878664970398,0.5395445227622986],"min":[-0.8418611288070679,-0.29550808668136597,-0.7824700474739075],"type":"VEC3"},{"bufferView":46,"componentType":5126,"count":15,"max":[1,1],"min":[0,0],"type":"VEC2"},{"bufferView":47,"componentType":5123,"count":15,"max":[14],"min":[0],"type":"SCALAR"},{"bufferView":48,"componentType":5126,"count":15,"max":[0.026428833603858948,0.4206048250198364,-0.048472754657268524],"min":[-0.07690944522619247,-0.027632098644971848,-0.3143965005874634],"type":"VEC3"},{"bufferView":49,"componentType":5126,"count":15,"max":[0.8418611288070679,0.5428878664970398,0.5395445227622986],"min":[-0.9900386333465576,-0.29550808668136597,-0.7824700474739075],"type":"VEC3"},{"bufferView":50,"componentType":5126,"count":15,"max":[4.724999904632568,0.5000500082969666],"min":[0.17499999701976776,0],"type":"VEC2"},{"bufferView":51,"componentType":5123,"count":15,"max":[14],"min":[0],"type":"SCALAR"},{"bufferView":52,"componentType":5126,"count":20,"max":[0.16952930390834808,0.4475504457950592,0.054768625646829605],"min":[0,-0.08274461328983307,-0.1014808863401413],"type":"VEC3"},{"bufferView":53,"componentType":5126,"count":20,"max":[0.9271795749664307,0.35470330715179443,0.9002044796943665],"min":[-0.8978699445724487,-0.32042425870895386,-0.9246746897697449],"type":"VEC3"},{"bufferView":54,"componentType":5126,"count":20,"max":[1,1],"min":[0,0],"type":"VEC2"},{"bufferView":55,"componentType":5123,"count":24,"max":[19],"min":[0],"type":"SCALAR"},{"bufferView":56,"componentType":5126,"count":20,"max":[0,0.4475504457950592,0.054768625646829605],"min":[-0.16952930390834808,-0.08274461328983307,-0.1014808863401413],"type":"VEC3"},{"bufferView":57,"componentType":5126,"count":20,"max":[0.8978699445724487,0.35470330715179443,0.9002044796943665],"min":[-0.9271795749664307,-0.32042425870895386,-0.9246746897697449],"type":"VEC3"},{"bufferView":58,"componentType":5126,"count":20,"max":[1,1],"min":[0,0],"type":"VEC2"},{"bufferView":59,"componentType":5123,"count":24,"max":[19],"min":[0],"type":"SCALAR"},{"bufferView":60,"componentType":5126,"count":19,"max":[0.0625,0.42283937335014343,0.24316374957561493],"min":[-0.10374374687671661,-0.342731237411499,-0.22149062156677246],"type":"VEC3"},{"bufferView":61,"componentType":5126,"count":19,"max":[0.8868502378463745,0.4448414146900177,0.7192525863647461],"min":[-0.8126077651977539,-0.11018798500299454,-0.9945712685585022],"type":"VEC3"},{"bufferView":62,"componentType":5126,"count":19,"max":[1,1],"min":[0,0],"type":"VEC2"},{"bufferView":63,"componentType":5123,"count":21,"max":[18],"min":[0],"type":"SCALAR"},{"bufferView":64,"componentType":5126,"count":19,"max":[0.10374374687671661,0.42283937335014343,0.24316374957561493],"min":[-0.0625,-0.342731237411499,-0.22149062156677246],"type":"VEC3"},{"bufferView":65,"componentType":5126,"count":19,"max":[0.8126077651977539,0.4448414146900177,0.7192525863647461],"min":[-0.8868502378463745,-0.11018798500299454,-0.9945712685585022],"type":"VEC3"},{"bufferView":66,"componentType":5126,"count":19,"max":[1,1],"min":[0,0],"type":"VEC2"},{"bufferView":67,"componentType":5123,"count":21,"max":[18],"min":[0],"type":"SCALAR"},{"bufferView":68,"componentType":5126,"count":36,"max":[0.25,-0.25,0.1875],"min":[-0.25,-0.5625,-0.375],"type":"VEC3"},{"bufferView":69,"componentType":5126,"count":36,"max":[0.917170524597168,0.986393928527832,0.39307308197021484],"min":[-0.917170524597168,-0.6882472038269043,-0.5773502588272095],"type":"VEC3"},{"bufferView":70,"componentType":5126,"count":36,"max":[0.734375,0.046875],"min":[0.015625,0.015625],"type":"VEC2"},{"bufferView":71,"componentType":5123,"count":36,"max":[35],"min":[0],"type":"SCALAR"},{"bufferView":72,"componentType":5126,"count":60,"max":[0.09375,-0.0625,0.1875],"min":[-0.09375,-0.5625,-0.1875],"type":"VEC3"},{"bufferView":73,"componentType":5126,"count":60,"max":[0.9486833214759827,0.6292451620101929,0.6666666865348816],"min":[-0.9486833214759827,-0.7556625604629517,-0.8164966106414795],"type":"VEC3"},{"bufferView":74,"componentType":5126,"count":60,"max":[0.984375,0.109375],"min":[0.015625,0.015625],"type":"VEC2"},{"bufferView":75,"componentType":5123,"count":60,"max":[59],"min":[0],"type":"SCALAR"},{"bufferView":76,"componentType":5126,"count":15,"max":[0.049112364649772644,0.5012981295585632,0.0010279933921992779],"min":[-0.10396461933851242,-0.09161708503961563,-0.3133639097213745],"type":"VEC3"},{"bufferView":77,"componentType":5126,"count":15,"max":[0.8878637552261353,0.5271391868591309,0.40979158878326416],"min":[-0.999094545841217,-0.4772770404815674,-0.7764555215835571],"type":"VEC3"},{"bufferView":78,"componentType":5126,"count":15,"max":[1,1],"min":[0,0],"type":"VEC2"},{"bufferView":79,"componentType":5123,"count":15,"max":[14],"min":[0],"type":"SCALAR"},{"bufferView":80,"componentType":5126,"count":15,"max":[0.10396461933851242,0.5012981295585632,0.0010279933921992779],"min":[-0.049112364649772644,-0.09161708503961563,-0.3133639097213745],"type":"VEC3"},{"bufferView":81,"componentType":5126,"count":15,"max":[0.999094545841217,0.5271391868591309,0.40979158878326416],"min":[-0.8878637552261353,-0.4772770404815674,-0.7764555215835571],"type":"VEC3"},{"bufferView":82,"componentType":5126,"count":15,"max":[1,1],"min":[0,0],"type":"VEC2"},{"bufferView":83,"componentType":5123,"count":15,"max":[14],"min":[0],"type":"SCALAR"},{"bufferView":84,"componentType":5126,"count":15,"max":[0.24974790215492249,0.7022002935409546,0.19363313913345337],"min":[-0.0979502871632576,-0.001643019262701273,-0.3190920352935791],"type":"VEC3"},{"bufferView":85,"componentType":5126,"count":15,"max":[0.8454228043556213,0.5292876958847046,0.2002413123846054],"min":[-0.9648128747940063,-0.6254044771194458,-0.7838270664215088],"type":"VEC3"},{"bufferView":86,"componentType":5126,"count":15,"max":[1,1],"min":[0,0],"type":"VEC2"},{"bufferView":87,"componentType":5123,"count":15,"max":[14],"min":[0],"type":"SCALAR"},{"bufferView":88,"componentType":5126,"count":15,"max":[0.0979502871632576,0.7022002935409546,0.19363313913345337],"min":[-0.24974790215492249,-0.001643019262701273,-0.3190920352935791],"type":"VEC3"},{"bufferView":89,"componentType":5126,"count":15,"max":[0.9648128747940063,0.5292876958847046,0.2002413123846054],"min":[-0.8454228043556213,-0.6254044771194458,-0.7838270664215088],"type":"VEC3"},{"bufferView":90,"componentType":5126,"count":15,"max":[1,1],"min":[0,0],"type":"VEC2"},{"bufferView":91,"componentType":5123,"count":15,"max":[14],"min":[0],"type":"SCALAR"},{"bufferView":92,"componentType":5126,"count":18,"max":[0.5050127506256104,0.7022002935409546,0.19363313913345337],"min":[-0.5622479319572449,-0.06830297410488129,-0.3190920352935791],"type":"VEC3"},{"bufferView":93,"componentType":5126,"count":18,"max":[0.6793005466461182,0.8048651218414307,0.39273327589035034],"min":[-0.4412704110145569,-0.8427037596702576,-0.8225753903388977],"type":"VEC3"},{"bufferView":94,"componentType":5126,"count":18,"max":[1,1],"min":[0,0],"type":"VEC2"},{"bufferView":95,"componentType":5123,"count":18,"max":[17],"min":[0],"type":"SCALAR"},{"bufferView":96,"componentType":5126,"count":18,"max":[0.5622479319572449,0.7022002935409546,0.19363313913345337],"min":[-0.5050127506256104,-0.06830297410488129,-0.3190920352935791],"type":"VEC3"},{"bufferView":97,"componentType":5126,"count":18,"max":[0.4412704110145569,0.8048651218414307,0.39273327589035034],"min":[-0.6793005466461182,-0.8427037596702576,-0.8225753903388977],"type":"VEC3"},{"bufferView":98,"componentType":5126,"count":18,"max":[1,1],"min":[0,0],"type":"VEC2"},{"bufferView":99,"componentType":5123,"count":18,"max":[17],"min":[0],"type":"SCALAR"},{"bufferView":100,"componentType":5126,"count":12,"max":[0.962374746799469,0.6076583862304688,0.9021666646003723],"min":[-0.13921137154102325,-0.5553992986679077,-0.23869340121746063],"type":"VEC3"},{"bufferView":101,"componentType":5126,"count":12,"max":[0.25193434953689575,0.8286697864532471,0.877392053604126],"min":[-0.8498064279556274,-0.6016185283660889,-0.7753472328186035],"type":"VEC3"},{"bufferView":102,"componentType":5126,"count":12,"max":[1,1],"min":[0,0],"type":"VEC2"},{"bufferView":103,"componentType":5123,"count":12,"max":[11],"min":[0],"type":"SCALAR"},{"bufferView":104,"componentType":5126,"count":12,"max":[0.13921137154102325,0.6076583862304688,0.9021666646003723],"min":[-0.962374746799469,-0.5553992986679077,-0.23869340121746063],"type":"VEC3"},{"bufferView":105,"componentType":5126,"count":12,"max":[0.8498064279556274,0.8286697864532471,0.877392053604126],"min":[-0.25193434953689575,-0.6016185283660889,-0.7753472328186035],"type":"VEC3"},{"bufferView":106,"componentType":5126,"count":12,"max":[1,1],"min":[0,0],"type":"VEC2"},{"bufferView":107,"componentType":5123,"count":12,"max":[11],"min":[0],"type":"SCALAR"}],"materials":[{"pbrMetallicRoughness":{"metallicFactor":0,"roughnessFactor":1},"alphaMode":"MASK","alphaCutoff":0.05,"doubleSided":true},{"pbrMetallicRoughness":{"metallicFactor":0,"roughnessFactor":1},"alphaMode":"MASK","alphaCutoff":0.05,"doubleSided":true},{"pbrMetallicRoughness":{"metallicFactor":0,"roughnessFactor":1},"alphaMode":"MASK","alphaCutoff":0.05,"doubleSided":true},{"pbrMetallicRoughness":{"metallicFactor":0,"roughnessFactor":1},"alphaMode":"MASK","alphaCutoff":0.05,"doubleSided":true},{"pbrMetallicRoughness":{"metallicFactor":0,"roughnessFactor":1},"alphaMode":"MASK","alphaCutoff":0.05,"doubleSided":true},{"pbrMetallicRoughness":{"metallicFactor":0,"roughnessFactor":1},"alphaMode":"MASK","alphaCutoff":0.05,"doubleSided":true}],"meshes":[{"primitives":[{"mode":4,"attributes":{"POSITION":0,"NORMAL":1,"TEXCOORD_0":2},"indices":3,"material":0}]},{"primitives":[{"mode":4,"attributes":{"POSITION":4,"NORMAL":5,"TEXCOORD_0":6},"indices":7,"material":0}]},{"primitives":[{"mode":4,"attributes":{"POSITION":8,"NORMAL":9,"TEXCOORD_0":10},"indices":11,"material":1}]},{"primitives":[{"mode":4,"attributes":{"POSITION":12,"NORMAL":13,"TEXCOORD_0":14},"indices":15,"material":0}]},{"primitives":[{"mode":4,"attributes":{"POSITION":16,"NORMAL":17,"TEXCOORD_0":18},"indices":19,"material":0}]},{"primitives":[{"mode":4,"attributes":{"POSITION":20,"NORMAL":21,"TEXCOORD_0":22},"indices":23,"material":0}]},{"primitives":[{"mode":4,"attributes":{"POSITION":24,"NORMAL":25,"TEXCOORD_0":26},"indices":27,"material":0}]},{"primitives":[{"mode":4,"attributes":{"POSITION":28,"NORMAL":29,"TEXCOORD_0":30},"indices":31,"material":2}]},{"primitives":[{"mode":4,"attributes":{"POSITION":32,"NORMAL":33,"TEXCOORD_0":34},"indices":35,"material":2}]},{"primitives":[{"mode":4,"attributes":{"POSITION":36,"NORMAL":37,"TEXCOORD_0":38},"indices":39,"material":3}]},{"primitives":[{"mode":4,"attributes":{"POSITION":40,"NORMAL":41,"TEXCOORD_0":42},"indices":43,"material":3}]},{"primitives":[{"mode":4,"attributes":{"POSITION":44,"NORMAL":45,"TEXCOORD_0":46},"indices":47,"material":4}]},{"primitives":[{"mode":4,"attributes":{"POSITION":48,"NORMAL":49,"TEXCOORD_0":50},"indices":51,"material":4}]},{"primitives":[{"mode":4,"attributes":{"POSITION":52,"NORMAL":53,"TEXCOORD_0":54},"indices":55,"material":5}]},{"primitives":[{"mode":4,"attributes":{"POSITION":56,"NORMAL":57,"TEXCOORD_0":58},"indices":59,"material":5}]},{"primitives":[{"mode":4,"attributes":{"POSITION":60,"NORMAL":61,"TEXCOORD_0":62},"indices":63,"material":2}]},{"primitives":[{"mode":4,"attributes":{"POSITION":64,"NORMAL":65,"TEXCOORD_0":66},"indices":67,"material":2}]},{"primitives":[{"mode":4,"attributes":{"POSITION":68,"NORMAL":69,"TEXCOORD_0":70},"indices":71,"material":1}]},{"primitives":[{"mode":4,"attributes":{"POSITION":72,"NORMAL":73,"TEXCOORD_0":74},"indices":75,"material":1}]},{"primitives":[{"mode":4,"attributes":{"POSITION":76,"NORMAL":77,"TEXCOORD_0":78},"indices":79,"material":4}]},{"primitives":[{"mode":4,"attributes":{"POSITION":80,"NORMAL":81,"TEXCOORD_0":82},"indices":83,"material":4}]},{"primitives":[{"mode":4,"attributes":{"POSITION":84,"NORMAL":85,"TEXCOORD_0":86},"indices":87,"material":4}]},{"primitives":[{"mode":4,"attributes":{"POSITION":88,"NORMAL":89,"TEXCOORD_0":90},"indices":91,"material":4}]},{"primitives":[{"mode":4,"attributes":{"POSITION":92,"NORMAL":93,"TEXCOORD_0":94},"indices":95,"material":4}]},{"primitives":[{"mode":4,"attributes":{"POSITION":96,"NORMAL":97,"TEXCOORD_0":98},"indices":99,"material":4}]},{"primitives":[{"mode":4,"attributes":{"POSITION":100,"NORMAL":101,"TEXCOORD_0":102},"indices":103,"material":4}]},{"primitives":[{"mode":4,"attributes":{"POSITION":104,"NORMAL":105,"TEXCOORD_0":106},"indices":107,"material":4}]}]}