{"asset":{"version":"2.0","generator":"Blockbench 5.1.6 glTF exporter"},"scenes":[{"nodes":[38],"name":"blockbench_export"}],"scene":0,"nodes":[{"translation":[0,-1.21875,0],"name":"cylinder","mesh":0},{"translation":[0,-0.046875,0],"name":"cylinder","mesh":1},{"translation":[0,0.203125,0],"name":"cylinder2","mesh":2},{"translation":[-0.03125,0.765625,0],"name":"cylinder3","mesh":3},{"translation":[5.204170427930421e-18,-1.16875,0.31579374097184604],"name":"cylinder","mesh":4},{"translation":[5.204170427930421e-18,-1.16875,0.31579374097184604],"name":"cylinder2","mesh":5},{"translation":[-0.007120508471182101,-1.1700849154118265,0.3115933042547784],"name":"cylinder","mesh":6},{"translation":[-0.007120508471182101,-1.1700849154118265,0.3115933042547784],"name":"cylinder2","mesh":7},{"rotation":[0.6465042579838092,0.01490450981310465,-0.025815368258206108,0.7623277948217082],"translation":[-3.469446951953614e-17,-0.02022023789863492,-0.0754629551788335],"name":"cylinder","mesh":8},{"rotation":[-1.0408340855860843e-17,0.07782838788448597,0.2904594978560798,0.9537169507482269],"translation":[0.01951425847118209,-0.3783838345881736,0.0009066957452215918],"name":"forearmR","children":[6,7,8]},{"rotation":[0.12940952255126034,-0.017037086855465865,-0.12940952255126037,0.9829629131445341],"translation":[-0.0010466765329340626,0.01171875,-0.23490740896423332],"name":"armR","children":[4,5,9]},{"translation":[5.204170427930421e-18,-1.16875,-0.31579374097184604],"name":"cylinder","mesh":9},{"translation":[5.204170427930421e-18,-1.16875,-0.31579374097184604],"name":"cylinder2","mesh":10},{"translation":[-0.007120508471182101,-1.1700849154118265,-0.3115933042547784],"name":"cylinder","mesh":11},{"translation":[-0.007120508471182101,-1.1700849154118265,-0.3115933042547784],"name":"cylinder2","mesh":12},{"rotation":[-0.6465042579838092,-0.01490450981310465,-0.025815368258206108,0.7623277948217082],"translation":[-3.469446951953614e-17,-0.02022023789863492,0.0754629551788335],"name":"cylinder","mesh":13},{"rotation":[1.0408340855860843e-17,-0.07782838788448597,0.2904594978560798,0.9537169507482269],"translation":[0.01951425847118209,-0.3783838345881736,-0.0009066957452215918],"name":"fofrontmR","children":[13,14,15]},{"rotation":[-0.12940952255126034,0.017037086855465865,-0.12940952255126037,0.9829629131445341],"translation":[-0.0010466765329340626,0.01171875,0.23490740896423332],"name":"armL","children":[11,12,16]},{"translation":[0,0.453125,0],"name":"arms","children":[10,17]},{"translation":[0,-0.03125,0],"name":"cylinder","mesh":14},{"translation":[0,0.609375,0],"name":"head","children":[19]},{"translation":[0,0.078125,0],"name":"torso","children":[1,2,3,18,20]},{"translation":[-0.015092591035766711,-1.1633738057321,-0.3244165447241707],"name":"cylinder","mesh":15},{"translation":[-0.015092591035766711,-1.1633738057321,-0.3244165447241707],"name":"cylinder2","mesh":16},{"translation":[-0.015595491213234343,-1.1242557505284394,-0.31328088296453743],"name":"cylinder","mesh":17},{"translation":[-0.015595491213234343,-1.1242557505284394,-0.31328088296453743],"name":"cylinder2","mesh":18},{"rotation":[0.602907642126791,-0.5129171366417151,0.486740188333842,0.3694622782708857],"translation":[0.035893528040074514,-0.5658934044053949,-0.03839734848017169],"name":"cylinder","mesh":19},{"rotation":[-9.367506770274758e-17,0.06698729810778069,-0.25000000000000006,0.9659258262890683],"translation":[-0.04148456991832232,-0.5638100428744156,-0.01811411650428077],"name":"kneeL","children":[24,25,26]},{"rotation":[-0.12940952255126034,-0.017037086855465865,0.12940952255126037,0.9829629131445341],"translation":[0.015625000000000007,0.0295967226740117,0.10013917364907107],"name":"thighL","children":[22,23,27]},{"translation":[-0.015092591035766711,-1.1633738057321,0.3244165447241707],"name":"cylinder","mesh":20},{"translation":[-0.015092591035766711,-1.1633738057321,0.3244165447241707],"name":"cylinder2","mesh":21},{"translation":[-0.015595491213234343,-1.1242557505284394,0.31328088296453743],"name":"cylinder","mesh":22},{"translation":[-0.015595491213234343,-1.1242557505284394,0.31328088296453743],"name":"cylinder2","mesh":23},{"rotation":[-0.602907642126791,0.5129171366417151,0.486740188333842,0.3694622782708857],"translation":[0.035893528040074514,-0.5658934044053949,0.03839734848017169],"name":"cylinder","mesh":24},{"rotation":[9.367506770274758e-17,-0.06698729810778069,-0.25000000000000006,0.9659258262890683],"translation":[-0.04148456991832232,-0.5638100428744156,0.01811411650428077],"name":"kneeR","children":[31,32,33]},{"rotation":[0.12940952255126034,0.017037086855465865,0.12940952255126037,0.9829629131445341],"translation":[0.015625000000000007,0.0295967226740117,-0.10013917364907107],"name":"thighR","children":[29,30,34]},{"translation":[0,-0.078125,0],"name":"legs","children":[28,35]},{"translation":[0,1.21875,0],"name":"pelvis","children":[0,21,36]},{"rotation":[0,0.7071067811865475,0,0.7071067811865476],"name":"root","children":[37]}],"bufferViews":[{"buffer":0,"byteOffset":0,"byteLength":960,"target":34962,"byteStride":12},{"buffer":0,"byteOffset":960,"byteLength":960,"target":34962,"byteStride":12},{"buffer":0,"byteOffset":1920,"byteLength":640,"target":34962,"byteStride":8},{"buffer":0,"byteOffset":2560,"byteLength":192,"target":34963},{"buffer":0,"byteOffset":2752,"byteLength":960,"target":34962,"byteStride":12},{"buffer":0,"byteOffset":3712,"byteLength":960,"target":34962,"byteStride":12},{"buffer":0,"byteOffset":4672,"byteLength":640,"target":34962,"byteStride":8},{"buffer":0,"byteOffset":5312,"byteLength":192,"target":34963},{"buffer":0,"byteOffset":5504,"byteLength":960,"target":34962,"byteStride":12},{"buffer":0,"byteOffset":6464,"byteLength":960,"target":34962,"byteStride":12},{"buffer":0,"byteOffset":7424,"byteLength":640,"target":34962,"byteStride":8},{"buffer":0,"byteOffset":8064,"byteLength":192,"target":34963},{"buffer":0,"byteOffset":8256,"byteLength":960,"target":34962,"byteStride":12},{"buffer":0,"byteOffset":9216,"byteLength":960,"target":34962,"byteStride":12},{"buffer":0,"byteOffset":10176,"byteLength":640,"target":34962,"byteStride":8},{"buffer":0,"byteOffset":10816,"byteLength":192,"target":34963},{"buffer":0,"byteOffset":11008,"byteLength":960,"target":34962,"byteStride":12},{"buffer":0,"byteOffset":11968,"byteLength":960,"target":34962,"byteStride":12},{"buffer":0,"byteOffset":12928,"byteLength":640,"target":34962,"byteStride":8},{"buffer":0,"byteOffset":13568,"byteLength":192,"target":34963},{"buffer":0,"byteOffset":13760,"byteLength":960,"target":34962,"byteStride":12},{"buffer":0,"byteOffset":14720,"byteLength":960,"target":34962,"byteStride":12},{"buffer":0,"byteOffset":15680,"byteLength":640,"target":34962,"byteStride":8},{"buffer":0,"byteOffset":16320,"byteLength":192,"target":34963},{"buffer":0,"byteOffset":16512,"byteLength":960,"target":34962,"byteStride":12},{"buffer":0,"byteOffset":17472,"byteLength":960,"target":34962,"byteStride":12},{"buffer":0,"byteOffset":18432,"byteLength":640,"target":34962,"byteStride":8},{"buffer":0,"byteOffset":19072,"byteLength":192,"target":34963},{"buffer":0,"byteOffset":19264,"byteLength":960,"target":34962,"byteStride":12},{"buffer":0,"byteOffset":20224,"byteLength":960,"target":34962,"byteStride":12},{"buffer":0,"byteOffset":21184,"byteLength":640,"target":34962,"byteStride":8},{"buffer":0,"byteOffset":21824,"byteLength":192,"target":34963},{"buffer":0,"byteOffset":22016,"byteLength":600,"target":34962,"byteStride":12},{"buffer":0,"byteOffset":22616,"byteLength":600,"target":34962,"byteStride":12},{"buffer":0,"byteOffset":23216,"byteLength":400,"target":34962,"byteStride":8},{"buffer":0,"byteOffset":23616,"byteLength":120,"target":34963},{"buffer":0,"byteOffset":23736,"byteLength":960,"target":34962,"byteStride":12},{"buffer":0,"byteOffset":24696,"byteLength":960,"target":34962,"byteStride":12},{"buffer":0,"byteOffset":25656,"byteLength":640,"target":34962,"byteStride":8},{"buffer":0,"byteOffset":26296,"byteLength":192,"target":34963},{"buffer":0,"byteOffset":26488,"byteLength":960,"target":34962,"byteStride":12},{"buffer":0,"byteOffset":27448,"byteLength":960,"target":34962,"byteStride":12},{"buffer":0,"byteOffset":28408,"byteLength":640,"target":34962,"byteStride":8},{"buffer":0,"byteOffset":29048,"byteLength":192,"target":34963},{"buffer":0,"byteOffset":29240,"byteLength":960,"target":34962,"byteStride":12},{"buffer":0,"byteOffset":30200,"byteLength":960,"target":34962,"byteStride":12},{"buffer":0,"byteOffset":31160,"byteLength":640,"target":34962,"byteStride":8},{"buffer":0,"byteOffset":31800,"byteLength":192,"target":34963},{"buffer":0,"byteOffset":31992,"byteLength":960,"target":34962,"byteStride":12},{"buffer":0,"byteOffset":32952,"byteLength":960,"target":34962,"byteStride":12},{"buffer":0,"byteOffset":33912,"byteLength":640,"target":34962,"byteStride":8},{"buffer":0,"byteOffset":34552,"byteLength":192,"target":34963},{"buffer":0,"byteOffset":34744,"byteLength":600,"target":34962,"byteStride":12},{"buffer":0,"byteOffset":35344,"byteLength":600,"target":34962,"byteStride":12},{"buffer":0,"byteOffset":35944,"byteLength":400,"target":34962,"byteStride":8},{"buffer":0,"byteOffset":36344,"byteLength":120,"target":34963},{"buffer":0,"byteOffset":36464,"byteLength":1008,"target":34962,"byteStride":12},{"buffer":0,"byteOffset":37472,"byteLength":1008,"target":34962,"byteStride":12},{"buffer":0,"byteOffset":38480,"byteLength":672,"target":34962,"byteStride":8},{"buffer":0,"byteOffset":39152,"byteLength":216,"target":34963},{"buffer":0,"byteOffset":39368,"byteLength":960,"target":34962,"byteStride":12},{"buffer":0,"byteOffset":40328,"byteLength":960,"target":34962,"byteStride":12},{"buffer":0,"byteOffset":41288,"byteLength":640,"target":34962,"byteStride":8},{"buffer":0,"byteOffset":41928,"byteLength":192,"target":34963},{"buffer":0,"byteOffset":42120,"byteLength":960,"target":34962,"byteStride":12},{"buffer":0,"byteOffset":43080,"byteLength":960,"target":34962,"byteStride":12},{"buffer":0,"byteOffset":44040,"byteLength":640,"target":34962,"byteStride":8},{"buffer":0,"byteOffset":44680,"byteLength":192,"target":34963},{"buffer":0,"byteOffset":44872,"byteLength":960,"target":34962,"byteStride":12},{"buffer":0,"byteOffset":45832,"byteLength":960,"target":34962,"byteStride":12},{"buffer":0,"byteOffset":46792,"byteLength":640,"target":34962,"byteStride":8},{"buffer":0,"byteOffset":47432,"byteLength":192,"target":34963},{"buffer":0,"byteOffset":47624,"byteLength":960,"target":34962,"byteStride":12},{"buffer":0,"byteOffset":48584,"byteLength":960,"target":34962,"byteStride":12},{"buffer":0,"byteOffset":49544,"byteLength":640,"target":34962,"byteStride":8},{"buffer":0,"byteOffset":50184,"byteLength":192,"target":34963},{"buffer":0,"byteOffset":50376,"byteLength":600,"target":34962,"byteStride":12},{"buffer":0,"byteOffset":50976,"byteLength":600,"target":34962,"byteStride":12},{"buffer":0,"byteOffset":51576,"byteLength":400,"target":34962,"byteStride":8},{"buffer":0,"byteOffset":51976,"byteLength":120,"target":34963},{"buffer":0,"byteOffset":52096,"byteLength":960,"target":34962,"byteStride":12},{"buffer":0,"byteOffset":53056,"byteLength":960,"target":34962,"byteStride":12},{"buffer":0,"byteOffset":54016,"byteLength":640,"target":34962,"byteStride":8},{"buffer":0,"byteOffset":54656,"byteLength":192,"target":34963},{"buffer":0,"byteOffset":54848,"byteLength":960,"target":34962,"byteStride":12},{"buffer":0,"byteOffset":55808,"byteLength":960,"target":34962,"byteStride":12},{"buffer":0,"byteOffset":56768,"byteLength":640,"target":34962,"byteStride":8},{"buffer":0,"byteOffset":57408,"byteLength":192,"target":34963},{"buffer":0,"byteOffset":57600,"byteLength":960,"target":34962,"byteStride":12},{"buffer":0,"byteOffset":58560,"byteLength":960,"target":34962,"byteStride":12},{"buffer":0,"byteOffset":59520,"byteLength":640,"target":34962,"byteStride":8},{"buffer":0,"byteOffset":60160,"byteLength":192,"target":34963},{"buffer":0,"byteOffset":60352,"byteLength":960,"target":34962,"byteStride":12},{"buffer":0,"byteOffset":61312,"byteLength":960,"target":34962,"byteStride":12},{"buffer":0,"byteOffset":62272,"byteLength":640,"target":34962,"byteStride":8},{"buffer":0,"byteOffset":62912,"byteLength":192,"target":34963},{"buffer":0,"byteOffset":63104,"byteLength":600,"target":34962,"byteStride":12},{"buffer":0,"byteOffset":63704,"byteLength":600,"target":34962,"byteStride":12},{"buffer":0,"byteOffset":64304,"byteLength":400,"target":34962,"byteStride":8},{"buffer":0,"byteOffset":64704,"byteLength":120,"target":34963}],"buffers":[{"byteLength":64824,"uri":"data:application/octet-stream;base64,"}],"accessors":[{"bufferView":0,"componentType":5126,"count":80,"max":[0.140625,1.375,0.15625],"min":[-0.140625,1.125,-0.15625],"type":"VEC3"},{"bufferView":1,"componentType":5126,"count":80,"max":[0.936329185962677,0.8329039216041565,0.9230769276618958],"min":[-0.936329185962677,-1,-0.9230769276618958],"type":"VEC3"},{"bufferView":2,"componentType":5126,"count":80,"max":[0.5411956310272217,0.5411956310272217],"min":[0,0],"type":"VEC2"},{"bufferView":3,"componentType":5123,"count":96,"max":[79],"min":[0],"type":"SCALAR"},{"bufferView":4,"componentType":5126,"count":80,"max":[0.203125,0.4375,0.21875],"min":[-0.171875,0,-0.21875],"type":"VEC3"},{"bufferView":5,"componentType":5126,"count":80,"max":[0.9510340690612793,1,0.9599999785423279],"min":[-0.9812487959861755,-1,-0.9599999785423279],"type":"VEC3"},{"bufferView":6,"componentType":5126,"count":80,"max":[0.5411956310272217,0.5411956310272217],"min":[0,0],"type":"VEC2"},{"bufferView":7,"componentType":5123,"count":96,"max":[79],"min":[0],"type":"SCALAR"},{"bufferView":8,"componentType":5126,"count":80,"max":[0.203125,0.375,0.21875],"min":[-0.171875,0.0625,-0.21875],"type":"VEC3"},{"bufferView":9,"componentType":5126,"count":80,"max":[0.9740971922874451,0.9615239500999451,1],"min":[-0.9880120158195496,-1,-1],"type":"VEC3"},{"bufferView":10,"componentType":5126,"count":80,"max":[0.5411956310272217,0.5411956310272217],"min":[0,0],"type":"VEC2"},{"bufferView":11,"componentType":5123,"count":96,"max":[79],"min":[0],"type":"SCALAR"},{"bufferView":12,"componentType":5126,"count":80,"max":[0.09375,-0.12187500298023224,0.0625],"min":[-0.03125,-0.33569061756134033,-0.0625],"type":"VEC3"},{"bufferView":13,"componentType":5126,"count":80,"max":[0.9952867031097412,1,0.9838589429855347],"min":[-0.9898477792739868,-0.8065009713172913,-0.9838589429855347],"type":"VEC3"},{"bufferView":14,"componentType":5126,"count":80,"max":[0.5411956310272217,0.5411956310272217],"min":[0,0],"type":"VEC2"},{"bufferView":15,"componentType":5123,"count":96,"max":[79],"min":[0],"type":"SCALAR"},{"bufferView":16,"componentType":5126,"count":80,"max":[0.10992619395256042,1.0951756238937378,-0.2348049432039261],"min":[-0.09375,0.8139256238937378,-0.39050376415252686],"type":"VEC3"},{"bufferView":17,"componentType":5126,"count":80,"max":[0.971555769443512,1,0.9868524074554443],"min":[-0.9913403987884521,-1,-0.9909303784370422],"type":"VEC3"},{"bufferView":18,"componentType":5126,"count":80,"max":[0.5411956310272217,0.5411956310272217],"min":[0,0],"type":"VEC2"},{"bufferView":19,"componentType":5123,"count":96,"max":[79],"min":[0],"type":"SCALAR"},{"bufferView":20,"componentType":5126,"count":80,"max":[0.10992619395256042,1.2201756238937378,-0.2348049432039261],"min":[-0.09375,1.065982699394226,-0.39050376415252686],"type":"VEC3"},{"bufferView":21,"componentType":5126,"count":80,"max":[0.929879903793335,1,0.9659801125526428],"min":[-0.9241601824760437,-1,-0.9442400932312012],"type":"VEC3"},{"bufferView":22,"componentType":5126,"count":80,"max":[0.5411956310272217,0.5411956310272217],"min":[0,0],"type":"VEC2"},{"bufferView":23,"componentType":5123,"count":96,"max":[79],"min":[0],"type":"SCALAR"},{"bufferView":24,"componentType":5126,"count":80,"max":[0.0625,1.0951756238937378,-0.25769126415252686],"min":[-0.0625,0.7201756238937378,-0.36706626415252686],"type":"VEC3"},{"bufferView":25,"componentType":5126,"count":80,"max":[0.9984603524208069,1,0.9988205432891846],"min":[-0.9984603524208069,-1,-0.9988205432891846],"type":"VEC3"},{"bufferView":26,"componentType":5126,"count":80,"max":[0.5411956310272217,0.5411956310272217],"min":[0,0],"type":"VEC2"},{"bufferView":27,"componentType":5123,"count":96,"max":[79],"min":[0],"type":"SCALAR"},{"bufferView":28,"componentType":5126,"count":80,"max":[0.0625,1.2201756238937378,-0.25769126415252686],"min":[-0.0625,1.0951756238937378,-0.36706626415252686],"type":"VEC3"},{"bufferView":29,"componentType":5126,"count":80,"max":[0.986393928527832,1,0.989533007144928],"min":[-0.986393928527832,-1,-0.989533007144928],"type":"VEC3"},{"bufferView":30,"componentType":5126,"count":80,"max":[0.5411956310272217,0.5411956310272217],"min":[0,0],"type":"VEC2"},{"bufferView":31,"componentType":5123,"count":96,"max":[79],"min":[0],"type":"SCALAR"},{"bufferView":32,"componentType":5126,"count":50,"max":[0.07347315549850464,0.0625,0.515625],"min":[-0.07347315549850464,-0.046875,0.3602457642555237],"type":"VEC3"},{"bufferView":33,"componentType":5126,"count":50,"max":[0.9510565400123596,0.9901333451271057,0.9805806875228882],"min":[-0.9492453336715698,-0.9805806875228882,-0.80901700258255],"type":"VEC3"},{"bufferView":34,"componentType":5126,"count":50,"max":[0.09081249684095383,0.5],"min":[0,0],"type":"VEC2"},{"bufferView":35,"componentType":5123,"count":60,"max":[49],"min":[0],"type":"SCALAR"},{"bufferView":36,"componentType":5126,"count":80,"max":[0.10992619395256042,1.0951756238937378,0.39050376415252686],"min":[-0.09375,0.8139256238937378,0.2348049432039261],"type":"VEC3"},{"bufferView":37,"componentType":5126,"count":80,"max":[0.971555769443512,1,0.9909303784370422],"min":[-0.9913403987884521,-1,-0.9868524074554443],"type":"VEC3"},{"bufferView":38,"componentType":5126,"count":80,"max":[0.5411956310272217,0.5411956310272217],"min":[0,0],"type":"VEC2"},{"bufferView":39,"componentType":5123,"count":96,"max":[79],"min":[0],"type":"SCALAR"},{"bufferView":40,"componentType":5126,"count":80,"max":[0.10992619395256042,1.2201756238937378,0.39050376415252686],"min":[-0.09375,1.065982699394226,0.2348049432039261],"type":"VEC3"},{"bufferView":41,"componentType":5126,"count":80,"max":[0.929879903793335,1,0.9442400932312012],"min":[-0.9241601824760437,-1,-0.9659801125526428],"type":"VEC3"},{"bufferView":42,"componentType":5126,"count":80,"max":[0.5411956310272217,0.5411956310272217],"min":[0,0],"type":"VEC2"},{"bufferView":43,"componentType":5123,"count":96,"max":[79],"min":[0],"type":"SCALAR"},{"bufferView":44,"componentType":5126,"count":80,"max":[0.0625,1.0951756238937378,0.36706626415252686],"min":[-0.0625,0.7201756238937378,0.25769126415252686],"type":"VEC3"},{"bufferView":45,"componentType":5126,"count":80,"max":[0.9984603524208069,1,0.9988205432891846],"min":[-0.9984603524208069,-1,-0.9988205432891846],"type":"VEC3"},{"bufferView":46,"componentType":5126,"count":80,"max":[0.5411956310272217,0.5411956310272217],"min":[0,0],"type":"VEC2"},{"bufferView":47,"componentType":5123,"count":96,"max":[79],"min":[0],"type":"SCALAR"},{"bufferView":48,"componentType":5126,"count":80,"max":[0.0625,1.2201756238937378,0.36706626415252686],"min":[-0.0625,1.0951756238937378,0.25769126415252686],"type":"VEC3"},{"bufferView":49,"componentType":5126,"count":80,"max":[0.986393928527832,1,0.989533007144928],"min":[-0.986393928527832,-1,-0.989533007144928],"type":"VEC3"},{"bufferView":50,"componentType":5126,"count":80,"max":[0.5411956310272217,0.5411956310272217],"min":[0,0],"type":"VEC2"},{"bufferView":51,"componentType":5123,"count":96,"max":[79],"min":[0],"type":"SCALAR"},{"bufferView":52,"componentType":5126,"count":50,"max":[0.07347315549850464,0.0625,-0.3602457642555237],"min":[-0.07347315549850464,-0.046875,-0.515625],"type":"VEC3"},{"bufferView":53,"componentType":5126,"count":50,"max":[0.9510565400123596,0.9901333451271057,0.80901700258255],"min":[-0.9492453336715698,-0.9805806875228882,-0.9805806875228882],"type":"VEC3"},{"bufferView":54,"componentType":5126,"count":50,"max":[0.09081249684095383,0.5],"min":[0,0],"type":"VEC2"},{"bufferView":55,"componentType":5123,"count":60,"max":[49],"min":[0],"type":"SCALAR"},{"bufferView":56,"componentType":5126,"count":84,"max":[0.13950318098068237,0.234375,0.09375],"min":[-0.10825317353010178,0,-0.09375],"type":"VEC3"},{"bufferView":57,"componentType":5126,"count":84,"max":[0.776107668876648,1,0.9329102635383606],"min":[-0.9727681875228882,-0.9795918464660645,-0.9513198733329773],"type":"VEC3"},{"bufferView":58,"componentType":5126,"count":84,"max":[0.1082562506198883,0.25],"min":[0,0],"type":"VEC2"},{"bufferView":59,"componentType":5123,"count":108,"max":[83],"min":[0],"type":"SCALAR"},{"bufferView":60,"componentType":5126,"count":80,"max":[0.125,1.124295949935913,0.43737876415252686],"min":[-0.125,0.6576756238937378,0.2035549432039261],"type":"VEC3"},{"bufferView":61,"componentType":5126,"count":80,"max":[0.9911487102508545,1,0.9899494647979736],"min":[-0.9911487102508545,-1,-0.9951083660125732],"type":"VEC3"},{"bufferView":62,"componentType":5126,"count":80,"max":[0.5411956310272217,0.5411956310272217],"min":[0,0],"type":"VEC2"},{"bufferView":63,"componentType":5123,"count":96,"max":[79],"min":[0],"type":"SCALAR"},{"bufferView":64,"componentType":5126,"count":80,"max":[0.125,1.2201756238937378,0.43737876415252686],"min":[-0.125,1.0951756238937378,0.2035549432039261],"type":"VEC3"},{"bufferView":65,"componentType":5126,"count":80,"max":[0.8328172564506531,1,0.8944271802902222],"min":[-0.8328172564506531,-1,-0.9004152417182922],"type":"VEC3"},{"bufferView":66,"componentType":5126,"count":80,"max":[0.5411956310272217,0.5411956310272217],"min":[0,0],"type":"VEC2"},{"bufferView":67,"componentType":5123,"count":96,"max":[79],"min":[0],"type":"SCALAR"},{"bufferView":68,"componentType":5126,"count":80,"max":[0.09375,1.0951756238937378,0.40612876415252686],"min":[-0.09375,0.5326756238937378,0.21862874925136566],"type":"VEC3"},{"bufferView":69,"componentType":5126,"count":80,"max":[0.9984603524208069,1,0.9984603524208069],"min":[-0.9984603524208069,-1,-0.9984603524208069],"type":"VEC3"},{"bufferView":70,"componentType":5126,"count":80,"max":[0.5411956310272217,0.5411956310272217],"min":[0,0],"type":"VEC2"},{"bufferView":71,"componentType":5123,"count":96,"max":[79],"min":[0],"type":"SCALAR"},{"bufferView":72,"componentType":5126,"count":80,"max":[0.09375,1.2201756238937378,0.40612876415252686],"min":[-0.09375,1.0951756238937378,0.21862874925136566],"type":"VEC3"},{"bufferView":73,"componentType":5126,"count":80,"max":[0.9701424837112427,1,0.9701424837112427],"min":[-0.9701424837112427,-1,-0.9701424837112427],"type":"VEC3"},{"bufferView":74,"componentType":5126,"count":80,"max":[0.5411956310272217,0.5411956310272217],"min":[0,0],"type":"VEC2"},{"bufferView":75,"componentType":5123,"count":96,"max":[79],"min":[0],"type":"SCALAR"},{"bufferView":76,"componentType":5126,"count":50,"max":[0.1342444270849228,0.14227856695652008,0.07377683371305466],"min":[-0.0494384691119194,-0.24461956322193146,-0.080695740878582],"type":"VEC3"},{"bufferView":77,"componentType":5126,"count":50,"max":[0.8248694539070129,0.9861039519309998,0.9996981620788574],"min":[-0.8874379396438599,-0.6485385894775391,-0.8542738556861877],"type":"VEC3"},{"bufferView":78,"componentType":5126,"count":50,"max":[0.11352500319480896,0.28125],"min":[0,0],"type":"VEC2"},{"bufferView":79,"componentType":5123,"count":60,"max":[49],"min":[0],"type":"SCALAR"},{"bufferView":80,"componentType":5126,"count":80,"max":[0.125,1.124295949935913,-0.2035549432039261],"min":[-0.125,0.6576756238937378,-0.43737876415252686],"type":"VEC3"},{"bufferView":81,"componentType":5126,"count":80,"max":[0.9911487102508545,1,0.9951083660125732],"min":[-0.9911487102508545,-1,-0.9899494647979736],"type":"VEC3"},{"bufferView":82,"componentType":5126,"count":80,"max":[0.5411956310272217,0.5411956310272217],"min":[0,0],"type":"VEC2"},{"bufferView":83,"componentType":5123,"count":96,"max":[79],"min":[0],"type":"SCALAR"},{"bufferView":84,"componentType":5126,"count":80,"max":[0.125,1.2201756238937378,-0.2035549432039261],"min":[-0.125,1.0951756238937378,-0.43737876415252686],"type":"VEC3"},{"bufferView":85,"componentType":5126,"count":80,"max":[0.8328172564506531,1,0.9004152417182922],"min":[-0.8328172564506531,-1,-0.8944271802902222],"type":"VEC3"},{"bufferView":86,"componentType":5126,"count":80,"max":[0.5411956310272217,0.5411956310272217],"min":[0,0],"type":"VEC2"},{"bufferView":87,"componentType":5123,"count":96,"max":[79],"min":[0],"type":"SCALAR"},{"bufferView":88,"componentType":5126,"count":80,"max":[0.09375,1.0951756238937378,-0.21862874925136566],"min":[-0.09375,0.5326756238937378,-0.40612876415252686],"type":"VEC3"},{"bufferView":89,"componentType":5126,"count":80,"max":[0.9984603524208069,1,0.9984603524208069],"min":[-0.9984603524208069,-1,-0.9984603524208069],"type":"VEC3"},{"bufferView":90,"componentType":5126,"count":80,"max":[0.5411956310272217,0.5411956310272217],"min":[0,0],"type":"VEC2"},{"bufferView":91,"componentType":5123,"count":96,"max":[79],"min":[0],"type":"SCALAR"},{"bufferView":92,"componentType":5126,"count":80,"max":[0.09375,1.2201756238937378,-0.21862874925136566],"min":[-0.09375,1.0951756238937378,-0.40612876415252686],"type":"VEC3"},{"bufferView":93,"componentType":5126,"count":80,"max":[0.9701424837112427,1,0.9701424837112427],"min":[-0.9701424837112427,-1,-0.9701424837112427],"type":"VEC3"},{"bufferView":94,"componentType":5126,"count":80,"max":[0.5411956310272217,0.5411956310272217],"min":[0,0],"type":"VEC2"},{"bufferView":95,"componentType":5123,"count":96,"max":[79],"min":[0],"type":"SCALAR"},{"bufferView":96,"componentType":5126,"count":50,"max":[0.1342444270849228,0.14227856695652008,0.080695740878582],"min":[-0.0494384691119194,-0.24461956322193146,-0.07377683371305466],"type":"VEC3"},{"bufferView":97,"componentType":5126,"count":50,"max":[0.8248694539070129,0.9861039519309998,0.8542738556861877],"min":[-0.8874379396438599,-0.6485385894775391,-0.9996981620788574],"type":"VEC3"},{"bufferView":98,"componentType":5126,"count":50,"max":[0.11352500319480896,0.28125],"min":[0,0],"type":"VEC2"},{"bufferView":99,"componentType":5123,"count":60,"max":[49],"min":[0],"type":"SCALAR"}],"materials":[{"pbrMetallicRoughness":{"metallicFactor":0,"roughnessFactor":1},"alphaMode":"MASK","alphaCutoff":0.05,"doubleSided":true},{"pbrMetallicRoughness":{"metallicFactor":0,"roughnessFactor":1},"alphaMode":"MASK","alphaCutoff":0.05,"doubleSided":true},{"pbrMetallicRoughness":{"metallicFactor":0,"roughnessFactor":1},"alphaMode":"MASK","alphaCutoff":0.05,"doubleSided":true},{"pbrMetallicRoughness":{"metallicFactor":0,"roughnessFactor":1},"alphaMode":"MASK","alphaCutoff":0.05,"doubleSided":true},{"pbrMetallicRoughness":{"metallicFactor":0,"roughnessFactor":1},"alphaMode":"MASK","alphaCutoff":0.05,"doubleSided":true}],"meshes":[{"primitives":[{"mode":4,"attributes":{"POSITION":0,"NORMAL":1,"TEXCOORD_0":2},"indices":3,"material":0}]},{"primitives":[{"mode":4,"attributes":{"POSITION":4,"NORMAL":5,"TEXCOORD_0":6},"indices":7,"material":0}]},{"primitives":[{"mode":4,"attributes":{"POSITION":8,"NORMAL":9,"TEXCOORD_0":10},"indices":11,"material":1}]},{"primitives":[{"mode":4,"attributes":{"POSITION":12,"NORMAL":13,"TEXCOORD_0":14},"indices":15,"material":0}]},{"primitives":[{"mode":4,"attributes":{"POSITION":16,"NORMAL":17,"TEXCOORD_0":18},"indices":19,"material":2}]},{"primitives":[{"mode":4,"attributes":{"POSITION":20,"NORMAL":21,"TEXCOORD_0":22},"indices":23,"material":2}]},{"primitives":[{"mode":4,"attributes":{"POSITION":24,"NORMAL":25,"TEXCOORD_0":26},"indices":27,"material":2}]},{"primitives":[{"mode":4,"attributes":{"POSITION":28,"NORMAL":29,"TEXCOORD_0":30},"indices":31,"material":2}]},{"primitives":[{"mode":4,"attributes":{"POSITION":32,"NORMAL":33,"TEXCOORD_0":34},"indices":35,"material":3}]},{"primitives":[{"mode":4,"attributes":{"POSITION":36,"NORMAL":37,"TEXCOORD_0":38},"indices":39,"material":2}]},{"primitives":[{"mode":4,"attributes":{"POSITION":40,"NORMAL":41,"TEXCOORD_0":42},"indices":43,"material":2}]},{"primitives":[{"mode":4,"attributes":{"POSITION":44,"NORMAL":45,"TEXCOORD_0":46},"indices":47,"material":2}]},{"primitives":[{"mode":4,"attributes":{"POSITION":48,"NORMAL":49,"TEXCOORD_0":50},"indices":51,"material":2}]},{"primitives":[{"mode":4,"attributes":{"POSITION":52,"NORMAL":53,"TEXCOORD_0":54},"indices":55,"material":3}]},{"primitives":[{"mode":4,"attributes":{"POSITION":56,"NORMAL":57,"TEXCOORD_0":58},"indices":59,"material":0}]},{"primitives":[{"mode":4,"attributes":{"POSITION":60,"NORMAL":61,"TEXCOORD_0":62},"indices":63,"material":2}]},{"primitives":[{"mode":4,"attributes":{"POSITION":64,"NORMAL":65,"TEXCOORD_0":66},"indices":67,"material":2}]},{"primitives":[{"mode":4,"attributes":{"POSITION":68,"NORMAL":69,"TEXCOORD_0":70},"indices":71,"material":2}]},{"primitives":[{"mode":4,"attributes":{"POSITION":72,"NORMAL":73,"TEXCOORD_0":74},"indices":75,"material":2}]},{"primitives":[{"mode":4,"attributes":{"POSITION":76,"NORMAL":77,"TEXCOORD_0":78},"indices":79,"material":4}]},{"primitives":[{"mode":4,"attributes":{"POSITION":80,"NORMAL":81,"TEXCOORD_0":82},"indices":83,"material":2}]},{"primitives":[{"mode":4,"attributes":{"POSITION":84,"NORMAL":85,"TEXCOORD_0":86},"indices":87,"material":2}]},{"primitives":[{"mode":4,"attributes":{"POSITION":88,"NORMAL":89,"TEXCOORD_0":90},"indices":91,"material":2}]},{"primitives":[{"mode":4,"attributes":{"POSITION":92,"NORMAL":93,"TEXCOORD_0":94},"indices":95,"material":2}]},{"primitives":[{"mode":4,"attributes":{"POSITION":96,"NORMAL":97,"TEXCOORD_0":98},"indices":99,"material":4}]}]}