{"accessors":[{"bufferView":0,"componentType":5126,"count":7074,"max":[200.0,110.125,80.3438720703125],"min":[-186.0,-60.0,-100.0],"normalized":false,"type":"VEC3"},{"bufferView":1,"componentType":5126,"count":7074,"max":[1.0,1.0,1.0,1.0],"min":[-1.0,-1.0,-1.0,-1.0],"normalized":false,"type":"VEC4"},{"bufferView":2,"componentType":5126,"count":7074,"max":[1.0,1.0,1.0],"min":[-1.0,-1.0,-1.0],"normalized":false,"type":"VEC3"},{"bufferView":3,"componentType":5126,"count":7074,"max":[1.0,1.0],"min":[0.0,0.0],"normalized":false,"type":"VEC2"},{"bufferView":4,"componentType":5123,"count":7074,"max":[7073],"min":[0],"normalized":false,"type":"SCALAR"},{"bufferView":5,"componentType":5126,"count":1950,"max":[0.5,1.0,0.5],"min":[-0.5,-1.0,-0.5],"normalized":false,"type":"VEC3"},{"bufferView":6,"componentType":5126,"count":1950,"max":[1.0,0.0,1.0,1.0],"min":[-1.0,-2.157951530534774e-05,-1.0,1.0],"normalized":false,"type":"VEC4"},{"bufferView":7,"componentType":5126,"count":1950,"max":[1.0,1.0,1.0],"min":[-1.0,-1.0,-1.0],"normalized":false,"type":"VEC3"},{"bufferView":8,"componentType":5126,"count":1950,"max":[1.0,1.0],"min":[0.0,0.0],"normalized":false,"type":"VEC2"},{"bufferView":9,"componentType":5123,"count":10368,"max":[1949],"min":[0],"normalized":false,"type":"SCALAR"}],"asset":{"generator":"Godot Engine v4.7.1.stable.official@a13da4feb8d8aefc283c3763d33a2f170a18d541","version":"2.0"},"bufferViews":[{"buffer":0,"byteLength":84888,"byteStride":12,"target":34962},{"buffer":0,"byteLength":113184,"byteOffset":84888,"byteStride":16,"target":34962},{"buffer":0,"byteLength":84888,"byteOffset":198072,"byteStride":12,"target":34962},{"buffer":0,"byteLength":56592,"byteOffset":282960,"byteStride":8,"target":34962},{"buffer":0,"byteLength":14148,"byteOffset":339552,"target":34963},{"buffer":0,"byteLength":23400,"byteOffset":353700,"byteStride":12,"target":34962},{"buffer":0,"byteLength":31200,"byteOffset":377100,"byteStride":16,"target":34962},{"buffer":0,"byteLength":23400,"byteOffset":408300,"byteStride":12,"target":34962},{"buffer":0,"byteLength":15600,"byteOffset":431700,"byteStride":8,"target":34962},{"buffer":0,"byteLength":20736,"byteOffset":447300,"target":34963}],"buffers":[{"byteLength":468036,"uri":"playground0.bin"}],"extensionsRequired":["KHR_texture_transform"],"extensionsUsed":["GODOT_single_root","KHR_node_visibility","KHR_texture_transform"],"images":[{"name":"texture1","uri":"textures%2Ftexture1.png"}],"materials":[{"pbrMetallicRoughness":{"baseColorFactor":[1.0,1.0,1.0,1.0],"baseColorTexture":{"extensions":{"KHR_texture_transform":{"scale":[0.20000000298023224,0.20000000298023224]}},"index":0},"metallicFactor":0.0,"roughnessFactor":1.0}},{"pbrMetallicRoughness":{"baseColorFactor":[1.0,0.0,0.0,1.0],"metallicFactor":0.0,"roughnessFactor":1.0}}],"meshes":[{"name":"playground2","primitives":[{"attributes":{"NORMAL":2,"POSITION":0,"TANGENT":1,"TEXCOORD_0":3},"indices":4,"material":0,"mode":4}]},{"primitives":[{"attributes":{"NORMAL":7,"POSITION":5,"TANGENT":6,"TEXCOORD_0":8},"indices":9,"material":1,"mode":4}]}],"nodes":[{"children":[1,2,3,5,6,7,8,9,10,11,12,13,14,15,16,17,18,19,20,21,24,25,26,27,29,30,31,32,33,34,35,36,37,38,39,40,41,42,43,44,45,46,47,48,49,50,51,52,53,54,55],"mesh":0,"name":"playground2"},{"mesh":1,"name":"playerref","translation":[74.0,42.0,25.0]},{"name":"floor","translation":[-29.5,0.0,0.0]},{"children":[4],"name":"floor2","translation":[-43.0,37.5,-25.0]},{"name":"floor22","translation":[16.5,0.0,-13.5]},{"name":"CSGBox3D","translation":[-178.0,36.0,-50.0]},{"name":"randomtube1","rotation":[0.15003226697444916,-0.15003226697444916,0.6910067796707153,0.6910067200660706],"translation":[-50.416015625,31.0,-23.0]},{"name":"randomtube2","translation":[-103.0,18.0,-23.0]},{"name":"randomtube3","rotation":[0.15003226697444916,-0.15003226697444916,0.6910067796707153,0.6910067200660706],"translation":[-50.416015625,3.0,-22.99999237060547]},{"name":"randomtube4","rotation":[0.15003226697444916,-0.15003226697444916,0.6910067796707153,0.6910067200660706],"translation":[-47.416015625,17.0,-23.0]},{"extensions":{"KHR_node_visibility":{"visible":false}},"name":"ramp1","rotation":[0.0,0.7071067690849304,0.0,0.7071067690849304],"translation":[-89.0,-1.0,15.25]},{"extensions":{"KHR_node_visibility":{"visible":false}},"name":"rampbox1","rotation":[0.0,0.7071067690849304,0.0,0.7071067690849304],"translation":[-99.0,16.0,30.25]},{"name":"randombigtube1","translation":[23.0,54.8125,-23.0]},{"name":"randombigtube2","rotation":[0.0,0.3826834559440613,0.0,0.9238795638084412],"translation":[23.0,2.0,-23.0]},{"name":"randombigtube3","rotation":[0.0,0.3826834559440613,0.0,0.9238795638084412],"translation":[23.0,37.59375,-23.0]},{"name":"randombigtube10","rotation":[0.0,0.7071067690849304,0.0,0.7071067690849304],"translation":[23.0,107.59375,-23.0]},{"name":"randomsewer1","rotation":[0.16833186149597168,-0.12916556000709534,0.7752895951271057,0.5949006080627441],"translation":[-58.91944122314453,37.260677337646484,30.0]},{"name":"randomsewer1cutout3","rotation":[2.1260309495119145e-06,-8.4932958088757e-07,0.9585812091827393,0.28481942415237427],"translation":[24.61182403564453,74.43353271484375,33.00018310546875]},{"name":"randomsewer1cutout","rotation":[0.1683320701122284,-0.12916535139083862,0.7752895951271057,0.5949005484580994],"translation":[-22.67591094970703,46.97209930419922,30.00001335144043]},{"extensions":{"KHR_node_visibility":{"visible":false}},"name":"randomsewer1cutout2","rotation":[0.6087614297866821,0.0,0.0,0.7933533787727356],"translation":[-98.0,18.486289978027344,25.17518424987793]},{"extensions":{"KHR_node_visibility":{"visible":false}},"name":"randomsewer1cutout21","rotation":[0.6087613701820374,0.0,0.0,0.7933533787727356],"translation":[-98.0,12.430201530456543,16.389816284179688]},{"children":[22],"name":"platform1","translation":[125.0,-10.0,-25.0]},{"children":[23],"name":"arena","translation":[0.0,50.57103729248047,0.0]},{"name":"arena2"},{"name":"platform1hollower","translation":[125.0,18.0,-25.0]},{"name":"platform1entrance","translation":[61.0,13.0,25.0]},{"name":"b1","translation":[125.0,54.0,35.0]},{"children":[28],"name":"b16","translation":[108.0,62.25,26.0]},{"name":"b12","translation":[67.0,-12.25,-20.0]},{"name":"b15","translation":[81.0,49.75,11.0]},{"name":"b5","translation":[65.0,54.0,13.0]},{"name":"b13","translation":[85.0,57.25,30.0]},{"name":"b14","translation":[136.0,57.5,19.0]},{"name":"b6","translation":[65.0,62.25,32.0]},{"name":"b2","translation":[145.0,69.0,35.0]},{"name":"b3","translation":[165.0,59.0,16.0]},{"name":"b4","translation":[185.0,64.0,16.0]},{"name":"b10","translation":[185.0,54.0,35.0]},{"name":"b11","translation":[165.0,68.0,35.0]},{"name":"b7","rotation":[0.0,-0.7071067690849304,0.0,0.7071067690849304],"translation":[70.0,44.0,-65.0]},{"name":"b8","translation":[95.07488250732422,59.73261642456055,-75.0]},{"name":"b122","translation":[144.07489013671875,59.73261642456055,-87.0]},{"name":"b18","translation":[134.07489013671875,56.17011642456055,-73.0]},{"name":"b20","translation":[157.07489013671875,52.17011642456055,-78.0]},{"name":"b21","translation":[188.07489013671875,52.17011642456055,-55.0]},{"name":"b22","translation":[169.07489013671875,57.07636642456055,-59.0]},{"name":"b19","translation":[89.07489013671875,51.48261642456055,-58.0]},{"name":"b9","translation":[180.0,60.0,-80.0]},{"name":"b17","translation":[116.5,65.0,-79.5]},{"name":"randombigtube5","translation":[177.0,17.75,-24.0]},{"name":"randombigtube7","rotation":[0.0,0.0,0.7071067690849304,0.7071067690849304],"translation":[141.5,9.0,-24.0]},{"name":"randombigtube8","rotation":[0.5,0.5,0.5,0.5],"translation":[107.28150177001953,9.0,23.172000885009766]},{"name":"randombigtube4","translation":[177.0,20.875,-24.0]},{"name":"randombigtube9","rotation":[0.0,0.0,0.7071067690849304,0.7071067690849304],"translation":[133.20465087890625,9.0,-24.0]},{"name":"randombigtube6","rotation":[0.5,0.5,0.5,0.5],"translation":[107.08599853515625,9.0,24.409910202026367]},{"children":[56],"name":"borders1","translation":[125.0,47.0,-25.0]},{"name":"borders12"}],"samplers":[{"magFilter":9728,"minFilter":9986,"wrapS":10497,"wrapT":10497}],"scene":0,"scenes":[{"nodes":[0]}],"textures":[{"sampler":0,"source":0}]}