{"asset":{"version":"2.0","generator":"Blockbench 5.1.6 glTF exporter"},"scenes":[{"nodes":[68,69,70,71],"name":"blockbench_export"}],"scene":0,"nodes":[{"translation":[0,-1.21875,0],"name":"cylinder","mesh":0},{"translation":[0,0.203125,0],"name":"cylinder2","mesh":1},{"translation":[-0.03125,0.765625,0],"name":"cylinder3","mesh":2},{"translation":[0,-0.046875,0],"name":"cylinder","mesh":3},{"translation":[0,-1.16875,0.31579375],"name":"cylinder","mesh":4},{"translation":[0,-1.16875,0.31579375],"name":"cylinder2","mesh":5},{"translation":[-0.007120625000000002,-1.170085,0.31159312499999997],"name":"cylinder2","mesh":6},{"rotation":[0.6465042438948811,0.014904528553990097,-0.025815361170533256,0.7623278066436551],"translation":[0,-0.02022062499999988,-0.07546312499999999],"name":"cylinder","mesh":7},{"translation":[-0.007120625000000002,-1.170085,0.31159312499999997],"name":"cylinder","mesh":8},{"rotation":[-4.592351345034107e-8,0.07782839590184082,0.2904595189411861,0.9537169436723869],"translation":[0.019514375,-0.37838375,0.0009068750000000014],"name":"forearmR","children":[6,7,8]},{"rotation":[0.12940952255126037,-0.01703708685546585,-0.12940952255126037,0.9829629131445341],"translation":[-0.001046875,0.01171875,-0.2349075],"name":"armR","children":[4,5,9]},{"translation":[0,-1.16875,-0.31579375],"name":"cylinder","mesh":9},{"translation":[0,-1.16875,-0.31579375],"name":"cylinder2","mesh":10},{"translation":[-0.007120625000000002,-1.170085,-0.31159312499999997],"name":"cylinder2","mesh":11},{"rotation":[-0.6465042438948811,-0.014904528553990097,-0.025815361170533256,0.7623278066436551],"translation":[0,-0.02022062499999988,0.07546312499999999],"name":"cylinder","mesh":12},{"translation":[-0.007120625000000002,-1.170085,-0.31159312499999997],"name":"cylinder","mesh":13},{"name":"deco1","mesh":14},{"name":"deco2","mesh":15},{"name":"deco3","mesh":16},{"name":"deco4","mesh":17},{"name":"beveled_cuboid","mesh":18},{"name":"deco5","mesh":19},{"rotation":[0.021560992723439375,0.0033185541808011753,0.15208718494349097,0.9881263071930092],"translation":[0.049199375000000004,-0.62515625,-0.015609999999999985],"name":"gun","children":[16,17,18,19,20,21]},{"rotation":[4.592351345034107e-8,-0.07782839590184082,0.2904595189411861,0.9537169436723869],"translation":[0.019514375,-0.37838375,-0.0009068750000000014],"name":"fofrontmR","children":[13,14,15,22]},{"rotation":[-0.12940952255126037,0.01703708685546585,-0.12940952255126037,0.9829629131445341],"translation":[-0.001046875,0.01171875,0.2349075],"name":"armL","children":[11,12,23]},{"translation":[0,0.453125,0],"name":"arms","children":[10,24]},{"translation":[0,-0.03125,0],"name":"cylinder","mesh":20},{"rotation":[-0.17101007166283433,-0.17101007166283433,0.030153689607045803,0.9698463103929541],"translation":[0.09375,-0.28125,0.140625],"name":"mesh","mesh":21},{"rotation":[-0.1956110517668535,-0.2126226943999706,-0.19191366408082666,0.9379216661277389],"translation":[0.09375,-0.28125,0.140625],"name":"mesh","mesh":22},{"rotation":[0.2160251565456481,0.20838552659792495,-0.19650631637465876,0.9334312356402031],"translation":[0.09375,-0.28125,-0.140625],"name":"mesh","mesh":23},{"rotation":[-0.033877100919744205,-0.17031155758177108,-0.19212642124631987,0.9658849588053571],"translation":[-0.09375,-0.21875,0.09375],"name":"mesh","mesh":24},{"rotation":[0,0,-0.1521233861899167,0.9883615104677607],"translation":[0,-0.25,0],"name":"mesh","mesh":25},{"rotation":[0.17101007166283433,0.17101007166283433,0.030153689607045803,0.9698463103929541],"translation":[0.09375,-0.28125,-0.140625],"name":"mesh","mesh":26},{"rotation":[0.033877100919744205,0.17031155758177108,-0.19212642124631987,0.9658849588053571],"translation":[-0.09375,-0.21875,-0.09375],"name":"mesh","mesh":27},{"rotation":[0,0,-0.1521233861899167,0.9883615104677607],"translation":[0,-0.25,0],"name":"mesh","mesh":28},{"translation":[0,-0.25,0],"name":"mesh","mesh":29},{"translation":[0.140625,-0.359375,0],"name":"mesh","mesh":30},{"rotation":[0,0,0.06540312923014306,0.9978589232386035],"translation":[-0.078125,-0.375,0],"name":"mesh","mesh":31},{"translation":[0,0.296875,0],"name":"modificationhood","children":[27,28,29,30,31,32,33,34,35,36,37]},{"translation":[0,0.609375,0],"name":"head","children":[26,38]},{"translation":[-0.125,-0.328125,0],"name":"mesh","mesh":32},{"translation":[0.03125,-0.421875,0],"name":"mesh","mesh":33},{"translation":[0.203125,0.375,0],"name":"modificationhead","children":[41]},{"translation":[0,0,0.03125],"name":"mesh","mesh":34},{"translation":[0.202078125,0.05859375,-0.2349075],"name":"modificationshoulder","children":[43]},{"translation":[-0.203125,0.390625,0],"name":"modificationtorso","children":[40,42,44]},{"translation":[0,0.078125,0],"name":"torso","children":[1,2,3,25,39,45]},{"translation":[-0.0150925,-1.1633737499999999,-0.324416875],"name":"cylinder","mesh":35},{"translation":[-0.0150925,-1.1633737499999999,-0.324416875],"name":"cylinder2","mesh":36},{"translation":[-0.015595624999999998,-1.1242562500000002,-0.313280625],"name":"cylinder2","mesh":37},{"rotation":[0.602907642126791,-0.5129171366417151,0.486740188333842,0.3694622782708857],"translation":[0.035893125,-0.5658937500000001,-0.0383975],"name":"cylinder","mesh":38},{"rotation":[0.007016348696037673,-0.020655724715647004,-0.10904099120541431,0.9937978537531602],"translation":[0.015625,-0.42187500000000006,0],"name":"mesh","mesh":39},{"translation":[0,0,-0.007800000000000001],"name":"modificationknee2","children":[51]},{"translation":[-0.015595624999999998,-1.1242562500000002,-0.313280625],"name":"cylinder","mesh":40},{"rotation":[-3.1622228110345096e-8,0.06698728683579816,-0.2500000301206268,0.9659258192749912],"translation":[-0.041484375000000004,-0.5638099999999999,-0.018114375000000002],"name":"kneeL","children":[49,50,52,53]},{"rotation":[-0.12940952255126037,-0.01703708685546585,0.12940952255126037,0.9829629131445341],"translation":[0.015625,0.029596874999999967,0.100139375],"name":"thighL","children":[47,48,54]},{"translation":[-0.0150925,-1.1633737499999999,0.324416875],"name":"cylinder","mesh":41},{"translation":[-0.0150925,-1.1633737499999999,0.324416875],"name":"cylinder2","mesh":42},{"translation":[-0.015595624999999998,-1.1242562500000002,0.313280625],"name":"cylinder2","mesh":43},{"rotation":[-0.602907642126791,0.5129171366417151,0.486740188333842,0.3694622782708857],"translation":[0.035893125,-0.5658937500000001,0.0383975],"name":"cylinder","mesh":44},{"rotation":[0.0023749523294704948,0.021685195733166043,-0.1088409344529994,0.993819783901913],"translation":[0.015625,-0.42187500000000006,0],"name":"mesh","mesh":45},{"rotation":[0.0023749523294704948,0.021685195733166043,-0.1088409344529994,0.993819783901913],"translation":[0.015625,-0.42187500000000006,0],"name":"mesh_selection"},{"name":"modificationknee","children":[60,61]},{"translation":[-0.015595624999999998,-1.1242562500000002,0.313280625],"name":"cylinder","mesh":46},{"rotation":[3.1622228110345096e-8,-0.06698728683579816,-0.2500000301206268,0.9659258192749912],"translation":[-0.041484375000000004,-0.5638099999999999,0.018114375000000002],"name":"kneeR","children":[58,59,62,63]},{"rotation":[0.12940952255126037,0.01703708685546585,0.12940952255126037,0.9829629131445341],"translation":[0.015625,0.029596874999999967,-0.100139375],"name":"thighR","children":[56,57,64]},{"translation":[0,-0.078125,0],"name":"legs","children":[55,65]},{"translation":[0,1.21875,0],"name":"pelvis","children":[0,46,66]},{"rotation":[0,0.7071067811865475,0,0.7071067811865476],"name":"root","children":[67]},{"rotation":[0,-0.7071067811865475,0,0.7071067811865476],"name":"root2"},{"translation":[0,1.21875,0],"name":"pelvis2"},{"translation":[0,1.296875,0],"name":"torso2"}],"bufferViews":[{"buffer":0,"byteOffset":0,"byteLength":960,"target":34962,"byteStride":12},{"buffer":0,"byteOffset":960,"byteLength":960,"target":34962,"byteStride":12},{"buffer":0,"byteOffset":1920,"byteLength":640,"target":34962,"byteStride":8},{"buffer":0,"byteOffset":2560,"byteLength":192,"target":34963},{"buffer":0,"byteOffset":2752,"byteLength":1488,"target":34962,"byteStride":12},{"buffer":0,"byteOffset":4240,"byteLength":1488,"target":34962,"byteStride":12},{"buffer":0,"byteOffset":5728,"byteLength":992,"target":34962,"byteStride":8},{"buffer":0,"byteOffset":6720,"byteLength":312,"target":34963},{"buffer":0,"byteOffset":7032,"byteLength":960,"target":34962,"byteStride":12},{"buffer":0,"byteOffset":7992,"byteLength":960,"target":34962,"byteStride":12},{"buffer":0,"byteOffset":8952,"byteLength":640,"target":34962,"byteStride":8},{"buffer":0,"byteOffset":9592,"byteLength":192,"target":34963},{"buffer":0,"byteOffset":9784,"byteLength":1608,"target":34962,"byteStride":12},{"buffer":0,"byteOffset":11392,"byteLength":1608,"target":34962,"byteStride":12},{"buffer":0,"byteOffset":13000,"byteLength":1072,"target":34962,"byteStride":8},{"buffer":0,"byteOffset":14072,"byteLength":324,"target":34963},{"buffer":0,"byteOffset":14396,"byteLength":960,"target":34962,"byteStride":12},{"buffer":0,"byteOffset":15356,"byteLength":960,"target":34962,"byteStride":12},{"buffer":0,"byteOffset":16316,"byteLength":640,"target":34962,"byteStride":8},{"buffer":0,"byteOffset":16956,"byteLength":192,"target":34963},{"buffer":0,"byteOffset":17148,"byteLength":960,"target":34962,"byteStride":12},{"buffer":0,"byteOffset":18108,"byteLength":960,"target":34962,"byteStride":12},{"buffer":0,"byteOffset":19068,"byteLength":640,"target":34962,"byteStride":8},{"buffer":0,"byteOffset":19708,"byteLength":192,"target":34963},{"buffer":0,"byteOffset":19900,"byteLength":960,"target":34962,"byteStride":12},{"buffer":0,"byteOffset":20860,"byteLength":960,"target":34962,"byteStride":12},{"buffer":0,"byteOffset":21820,"byteLength":640,"target":34962,"byteStride":8},{"buffer":0,"byteOffset":22460,"byteLength":192,"target":34963},{"buffer":0,"byteOffset":22652,"byteLength":600,"target":34962,"byteStride":12},{"buffer":0,"byteOffset":23252,"byteLength":600,"target":34962,"byteStride":12},{"buffer":0,"byteOffset":23852,"byteLength":400,"target":34962,"byteStride":8},{"buffer":0,"byteOffset":24252,"byteLength":120,"target":34963},{"buffer":0,"byteOffset":24372,"byteLength":1728,"target":34962,"byteStride":12},{"buffer":0,"byteOffset":26100,"byteLength":1728,"target":34962,"byteStride":12},{"buffer":0,"byteOffset":27828,"byteLength":1152,"target":34962,"byteStride":8},{"buffer":0,"byteOffset":28980,"byteLength":384,"target":34963},{"buffer":0,"byteOffset":29364,"byteLength":960,"target":34962,"byteStride":12},{"buffer":0,"byteOffset":30324,"byteLength":960,"target":34962,"byteStride":12},{"buffer":0,"byteOffset":31284,"byteLength":640,"target":34962,"byteStride":8},{"buffer":0,"byteOffset":31924,"byteLength":192,"target":34963},{"buffer":0,"byteOffset":32116,"byteLength":960,"target":34962,"byteStride":12},{"buffer":0,"byteOffset":33076,"byteLength":960,"target":34962,"byteStride":12},{"buffer":0,"byteOffset":34036,"byteLength":640,"target":34962,"byteStride":8},{"buffer":0,"byteOffset":34676,"byteLength":192,"target":34963},{"buffer":0,"byteOffset":34868,"byteLength":960,"target":34962,"byteStride":12},{"buffer":0,"byteOffset":35828,"byteLength":960,"target":34962,"byteStride":12},{"buffer":0,"byteOffset":36788,"byteLength":640,"target":34962,"byteStride":8},{"buffer":0,"byteOffset":37428,"byteLength":192,"target":34963},{"buffer":0,"byteOffset":37620,"byteLength":600,"target":34962,"byteStride":12},{"buffer":0,"byteOffset":38220,"byteLength":600,"target":34962,"byteStride":12},{"buffer":0,"byteOffset":38820,"byteLength":400,"target":34962,"byteStride":8},{"buffer":0,"byteOffset":39220,"byteLength":120,"target":34963},{"buffer":0,"byteOffset":39340,"byteLength":1728,"target":34962,"byteStride":12},{"buffer":0,"byteOffset":41068,"byteLength":1728,"target":34962,"byteStride":12},{"buffer":0,"byteOffset":42796,"byteLength":1152,"target":34962,"byteStride":8},{"buffer":0,"byteOffset":43948,"byteLength":384,"target":34963},{"buffer":0,"byteOffset":44332,"byteLength":612,"target":34962,"byteStride":12},{"buffer":0,"byteOffset":44944,"byteLength":612,"target":34962,"byteStride":12},{"buffer":0,"byteOffset":45556,"byteLength":408,"target":34962,"byteStride":8},{"buffer":0,"byteOffset":45964,"byteLength":140,"target":34963},{"buffer":0,"byteOffset":46104,"byteLength":408,"target":34962,"byteStride":12},{"buffer":0,"byteOffset":46512,"byteLength":408,"target":34962,"byteStride":12},{"buffer":0,"byteOffset":46920,"byteLength":272,"target":34962,"byteStride":8},{"buffer":0,"byteOffset":47192,"byteLength":96,"target":34963},{"buffer":0,"byteOffset":47288,"byteLength":672,"target":34962,"byteStride":12},{"buffer":0,"byteOffset":47960,"byteLength":672,"target":34962,"byteStride":12},{"buffer":0,"byteOffset":48632,"byteLength":448,"target":34962,"byteStride":8},{"buffer":0,"byteOffset":49080,"byteLength":156,"target":34963},{"buffer":0,"byteOffset":49236,"byteLength":1416,"target":34962,"byteStride":12},{"buffer":0,"byteOffset":50652,"byteLength":1416,"target":34962,"byteStride":12},{"buffer":0,"byteOffset":52068,"byteLength":944,"target":34962,"byteStride":8},{"buffer":0,"byteOffset":53012,"byteLength":336,"target":34963},{"buffer":0,"byteOffset":53348,"byteLength":2676,"target":34962,"byteStride":12},{"buffer":0,"byteOffset":56024,"byteLength":2676,"target":34962,"byteStride":12},{"buffer":0,"byteOffset":58700,"byteLength":1784,"target":34962,"byteStride":8},{"buffer":0,"byteOffset":60484,"byteLength":632,"target":34963},{"buffer":0,"byteOffset":61116,"byteLength":288,"target":34962,"byteStride":12},{"buffer":0,"byteOffset":61404,"byteLength":288,"target":34962,"byteStride":12},{"buffer":0,"byteOffset":61692,"byteLength":192,"target":34962,"byteStride":8},{"buffer":0,"byteOffset":61884,"byteLength":72,"target":34963},{"buffer":0,"byteOffset":61956,"byteLength":1008,"target":34962,"byteStride":12},{"buffer":0,"byteOffset":62964,"byteLength":1008,"target":34962,"byteStride":12},{"buffer":0,"byteOffset":63972,"byteLength":672,"target":34962,"byteStride":8},{"buffer":0,"byteOffset":64644,"byteLength":216,"target":34963},{"buffer":0,"byteOffset":64860,"byteLength":264,"target":34962,"byteStride":12},{"buffer":0,"byteOffset":65124,"byteLength":264,"target":34962,"byteStride":12},{"buffer":0,"byteOffset":65388,"byteLength":176,"target":34962,"byteStride":8},{"buffer":0,"byteOffset":65564,"byteLength":60,"target":34963},{"buffer":0,"byteOffset":65624,"byteLength":264,"target":34962,"byteStride":12},{"buffer":0,"byteOffset":65888,"byteLength":264,"target":34962,"byteStride":12},{"buffer":0,"byteOffset":66152,"byteLength":176,"target":34962,"byteStride":8},{"buffer":0,"byteOffset":66328,"byteLength":60,"target":34963},{"buffer":0,"byteOffset":66388,"byteLength":264,"target":34962,"byteStride":12},{"buffer":0,"byteOffset":66652,"byteLength":264,"target":34962,"byteStride":12},{"buffer":0,"byteOffset":66916,"byteLength":176,"target":34962,"byteStride":8},{"buffer":0,"byteOffset":67092,"byteLength":60,"target":34963},{"buffer":0,"byteOffset":67152,"byteLength":288,"target":34962,"byteStride":12},{"buffer":0,"byteOffset":67440,"byteLength":288,"target":34962,"byteStride":12},{"buffer":0,"byteOffset":67728,"byteLength":192,"target":34962,"byteStride":8},{"buffer":0,"byteOffset":67920,"byteLength":72,"target":34963},{"buffer":0,"byteOffset":67992,"byteLength":456,"target":34962,"byteStride":12},{"buffer":0,"byteOffset":68448,"byteLength":456,"target":34962,"byteStride":12},{"buffer":0,"byteOffset":68904,"byteLength":304,"target":34962,"byteStride":8},{"buffer":0,"byteOffset":69208,"byteLength":96,"target":34963},{"buffer":0,"byteOffset":69304,"byteLength":264,"target":34962,"byteStride":12},{"buffer":0,"byteOffset":69568,"byteLength":264,"target":34962,"byteStride":12},{"buffer":0,"byteOffset":69832,"byteLength":176,"target":34962,"byteStride":8},{"buffer":0,"byteOffset":70008,"byteLength":60,"target":34963},{"buffer":0,"byteOffset":70068,"byteLength":288,"target":34962,"byteStride":12},{"buffer":0,"byteOffset":70356,"byteLength":288,"target":34962,"byteStride":12},{"buffer":0,"byteOffset":70644,"byteLength":192,"target":34962,"byteStride":8},{"buffer":0,"byteOffset":70836,"byteLength":72,"target":34963},{"buffer":0,"byteOffset":70908,"byteLength":456,"target":34962,"byteStride":12},{"buffer":0,"byteOffset":71364,"byteLength":456,"target":34962,"byteStride":12},{"buffer":0,"byteOffset":71820,"byteLength":304,"target":34962,"byteStride":8},{"buffer":0,"byteOffset":72124,"byteLength":96,"target":34963},{"buffer":0,"byteOffset":72220,"byteLength":360,"target":34962,"byteStride":12},{"buffer":0,"byteOffset":72580,"byteLength":360,"target":34962,"byteStride":12},{"buffer":0,"byteOffset":72940,"byteLength":240,"target":34962,"byteStride":8},{"buffer":0,"byteOffset":73180,"byteLength":72,"target":34963},{"buffer":0,"byteOffset":73252,"byteLength":768,"target":34962,"byteStride":12},{"buffer":0,"byteOffset":74020,"byteLength":768,"target":34962,"byteStride":12},{"buffer":0,"byteOffset":74788,"byteLength":512,"target":34962,"byteStride":8},{"buffer":0,"byteOffset":75300,"byteLength":192,"target":34963},{"buffer":0,"byteOffset":75492,"byteLength":2304,"target":34962,"byteStride":12},{"buffer":0,"byteOffset":77796,"byteLength":2304,"target":34962,"byteStride":12},{"buffer":0,"byteOffset":80100,"byteLength":1536,"target":34962,"byteStride":8},{"buffer":0,"byteOffset":81636,"byteLength":576,"target":34963},{"buffer":0,"byteOffset":82212,"byteLength":480,"target":34962,"byteStride":12},{"buffer":0,"byteOffset":82692,"byteLength":480,"target":34962,"byteStride":12},{"buffer":0,"byteOffset":83172,"byteLength":320,"target":34962,"byteStride":8},{"buffer":0,"byteOffset":83492,"byteLength":120,"target":34963},{"buffer":0,"byteOffset":83612,"byteLength":480,"target":34962,"byteStride":12},{"buffer":0,"byteOffset":84092,"byteLength":480,"target":34962,"byteStride":12},{"buffer":0,"byteOffset":84572,"byteLength":320,"target":34962,"byteStride":8},{"buffer":0,"byteOffset":84892,"byteLength":120,"target":34963},{"buffer":0,"byteOffset":85012,"byteLength":288,"target":34962,"byteStride":12},{"buffer":0,"byteOffset":85300,"byteLength":288,"target":34962,"byteStride":12},{"buffer":0,"byteOffset":85588,"byteLength":192,"target":34962,"byteStride":8},{"buffer":0,"byteOffset":85780,"byteLength":72,"target":34963},{"buffer":0,"byteOffset":85852,"byteLength":960,"target":34962,"byteStride":12},{"buffer":0,"byteOffset":86812,"byteLength":960,"target":34962,"byteStride":12},{"buffer":0,"byteOffset":87772,"byteLength":640,"target":34962,"byteStride":8},{"buffer":0,"byteOffset":88412,"byteLength":192,"target":34963},{"buffer":0,"byteOffset":88604,"byteLength":960,"target":34962,"byteStride":12},{"buffer":0,"byteOffset":89564,"byteLength":960,"target":34962,"byteStride":12},{"buffer":0,"byteOffset":90524,"byteLength":640,"target":34962,"byteStride":8},{"buffer":0,"byteOffset":91164,"byteLength":192,"target":34963},{"buffer":0,"byteOffset":91356,"byteLength":960,"target":34962,"byteStride":12},{"buffer":0,"byteOffset":92316,"byteLength":960,"target":34962,"byteStride":12},{"buffer":0,"byteOffset":93276,"byteLength":640,"target":34962,"byteStride":8},{"buffer":0,"byteOffset":93916,"byteLength":192,"target":34963},{"buffer":0,"byteOffset":94108,"byteLength":600,"target":34962,"byteStride":12},{"buffer":0,"byteOffset":94708,"byteLength":600,"target":34962,"byteStride":12},{"buffer":0,"byteOffset":95308,"byteLength":400,"target":34962,"byteStride":8},{"buffer":0,"byteOffset":95708,"byteLength":120,"target":34963},{"buffer":0,"byteOffset":95828,"byteLength":288,"target":34962,"byteStride":12},{"buffer":0,"byteOffset":96116,"byteLength":288,"target":34962,"byteStride":12},{"buffer":0,"byteOffset":96404,"byteLength":192,"target":34962,"byteStride":8},{"buffer":0,"byteOffset":96596,"byteLength":72,"target":34963},{"buffer":0,"byteOffset":96668,"byteLength":1344,"target":34962,"byteStride":12},{"buffer":0,"byteOffset":98012,"byteLength":1344,"target":34962,"byteStride":12},{"buffer":0,"byteOffset":99356,"byteLength":896,"target":34962,"byteStride":8},{"buffer":0,"byteOffset":100252,"byteLength":288,"target":34963},{"buffer":0,"byteOffset":100540,"byteLength":960,"target":34962,"byteStride":12},{"buffer":0,"byteOffset":101500,"byteLength":960,"target":34962,"byteStride":12},{"buffer":0,"byteOffset":102460,"byteLength":640,"target":34962,"byteStride":8},{"buffer":0,"byteOffset":103100,"byteLength":192,"target":34963},{"buffer":0,"byteOffset":103292,"byteLength":960,"target":34962,"byteStride":12},{"buffer":0,"byteOffset":104252,"byteLength":960,"target":34962,"byteStride":12},{"buffer":0,"byteOffset":105212,"byteLength":640,"target":34962,"byteStride":8},{"buffer":0,"byteOffset":105852,"byteLength":192,"target":34963},{"buffer":0,"byteOffset":106044,"byteLength":960,"target":34962,"byteStride":12},{"buffer":0,"byteOffset":107004,"byteLength":960,"target":34962,"byteStride":12},{"buffer":0,"byteOffset":107964,"byteLength":640,"target":34962,"byteStride":8},{"buffer":0,"byteOffset":108604,"byteLength":192,"target":34963},{"buffer":0,"byteOffset":108796,"byteLength":600,"target":34962,"byteStride":12},{"buffer":0,"byteOffset":109396,"byteLength":600,"target":34962,"byteStride":12},{"buffer":0,"byteOffset":109996,"byteLength":400,"target":34962,"byteStride":8},{"buffer":0,"byteOffset":110396,"byteLength":120,"target":34963},{"buffer":0,"byteOffset":110516,"byteLength":288,"target":34962,"byteStride":12},{"buffer":0,"byteOffset":110804,"byteLength":288,"target":34962,"byteStride":12},{"buffer":0,"byteOffset":111092,"byteLength":192,"target":34962,"byteStride":8},{"buffer":0,"byteOffset":111284,"byteLength":72,"target":34963},{"buffer":0,"byteOffset":111356,"byteLength":1344,"target":34962,"byteStride":12},{"buffer":0,"byteOffset":112700,"byteLength":1344,"target":34962,"byteStride":12},{"buffer":0,"byteOffset":114044,"byteLength":896,"target":34962,"byteStride":8},{"buffer":0,"byteOffset":114940,"byteLength":288,"target":34963}],"buffers":[{"byteLength":115228,"uri":"data:application/octet-stream;base64,"}],"accessors":[{"bufferView":0,"componentType":5126,"count":80,"max":[0.140625,1.40625,0.15625],"min":[-0.140625,1.125,-0.15625],"type":"VEC3"},{"bufferView":1,"componentType":5126,"count":80,"max":[0.936329185962677,0.7692716121673584,0.9230774641036987],"min":[-0.936329185962677,-1,-0.9230774641036987],"type":"VEC3"},{"bufferView":2,"componentType":5126,"count":80,"max":[0.5411956310272217,0.5411956310272217],"min":[0,0],"type":"VEC2"},{"bufferView":3,"componentType":5123,"count":96,"max":[79],"min":[0],"type":"SCALAR"},{"bufferView":4,"componentType":5126,"count":124,"max":[0.2582637369632721,0.375,0.203125],"min":[-0.1859356313943863,0.0625,-0.203125],"type":"VEC3"},{"bufferView":5,"componentType":5126,"count":124,"max":[0.9510340690612793,0.9555354118347168,0.9970195293426514],"min":[-0.9794329404830933,-0.9989984631538391,-1],"type":"VEC3"},{"bufferView":6,"componentType":5126,"count":124,"max":[0.5411956310272217,0.5411956310272217],"min":[0,0],"type":"VEC2"},{"bufferView":7,"componentType":5123,"count":156,"max":[123],"min":[0],"type":"SCALAR"},{"bufferView":8,"componentType":5126,"count":80,"max":[0.09375,-0.12187500298023224,0.046875],"min":[-0.03125,-0.33569061756134033,-0.046875],"type":"VEC3"},{"bufferView":9,"componentType":5126,"count":80,"max":[0.995286762714386,1,0.9908240437507629],"min":[-0.9898478984832764,-0.715122640132904,-0.9908232688903809],"type":"VEC3"},{"bufferView":10,"componentType":5126,"count":80,"max":[0.5411956310272217,0.5411956310272217],"min":[0,0],"type":"VEC2"},{"bufferView":11,"componentType":5123,"count":96,"max":[79],"min":[0],"type":"SCALAR"},{"bufferView":12,"componentType":5126,"count":134,"max":[0.17689041793346405,0.40433013439178467,0.17187374830245972],"min":[-0.171875,0,-0.17322687804698944],"type":"VEC3"},{"bufferView":13,"componentType":5126,"count":134,"max":[0.9644187092781067,0.9966821074485779,0.991703987121582],"min":[-0.9842273592948914,-1,-0.9909030199050903],"type":"VEC3"},{"bufferView":14,"componentType":5126,"count":134,"max":[0.5411956310272217,0.5411956310272217],"min":[-0.33031123876571655,0],"type":"VEC2"},{"bufferView":15,"componentType":5123,"count":162,"max":[133],"min":[0],"type":"SCALAR"},{"bufferView":16,"componentType":5126,"count":80,"max":[0.1099262535572052,1.0951756238937378,-0.25042998790740967],"min":[-0.09375,0.8139256238937378,-0.37487876415252686],"type":"VEC3"},{"bufferView":17,"componentType":5126,"count":80,"max":[0.9715556502342224,1,0.9915404319763184],"min":[-0.9913402795791626,-1,-0.9941771626472473],"type":"VEC3"},{"bufferView":18,"componentType":5126,"count":80,"max":[0.5411956310272217,0.5411956310272217],"min":[0,0],"type":"VEC2"},{"bufferView":19,"componentType":5123,"count":96,"max":[79],"min":[0],"type":"SCALAR"},{"bufferView":20,"componentType":5126,"count":80,"max":[0.1099262535572052,1.2201756238937378,-0.25042998790740967],"min":[-0.09375,1.065982460975647,-0.37487876415252686],"type":"VEC3"},{"bufferView":21,"componentType":5126,"count":80,"max":[0.9295495748519897,1,0.9778618216514587],"min":[-0.901561439037323,-1,-0.9632849097251892],"type":"VEC3"},{"bufferView":22,"componentType":5126,"count":80,"max":[0.5411956310272217,0.5411956310272217],"min":[0,0],"type":"VEC2"},{"bufferView":23,"componentType":5123,"count":96,"max":[79],"min":[0],"type":"SCALAR"},{"bufferView":24,"componentType":5126,"count":80,"max":[0.0625,1.2201756238937378,-0.25769126415252686],"min":[-0.0625,1.0951756238937378,-0.36706626415252686],"type":"VEC3"},{"bufferView":25,"componentType":5126,"count":80,"max":[0.9863941669464111,1,0.9895327687263489],"min":[-0.9863941669464111,-1,-0.9895327687263489],"type":"VEC3"},{"bufferView":26,"componentType":5126,"count":80,"max":[0.5411956310272217,0.5411956310272217],"min":[0,0],"type":"VEC2"},{"bufferView":27,"componentType":5123,"count":96,"max":[79],"min":[0],"type":"SCALAR"},{"bufferView":28,"componentType":5126,"count":50,"max":[0.07347312569618225,0.0625,0.515625],"min":[-0.07347312569618225,-0.046875,0.36024561524391174],"type":"VEC3"},{"bufferView":29,"componentType":5126,"count":50,"max":[0.9510563611984253,0.9901334047317505,0.9805806875228882],"min":[-0.9492452144622803,-0.9805806875228882,-0.809017539024353],"type":"VEC3"},{"bufferView":30,"componentType":5126,"count":50,"max":[0.09081249684095383,0.5],"min":[0,0],"type":"VEC2"},{"bufferView":31,"componentType":5123,"count":60,"max":[49],"min":[0],"type":"SCALAR"},{"bufferView":32,"componentType":5126,"count":144,"max":[0.0625,1.0951756238937378,-0.25769126415252686],"min":[-0.12860846519470215,0.7201756238937378,-0.36706626415252686],"type":"VEC3"},{"bufferView":33,"componentType":5126,"count":144,"max":[0.9984604120254517,1,0.9988205432891846],"min":[-0.9997906684875488,-1,-0.9988205432891846],"type":"VEC3"},{"bufferView":34,"componentType":5126,"count":144,"max":[0.5411956310272217,0.5411956310272217],"min":[0,0],"type":"VEC2"},{"bufferView":35,"componentType":5123,"count":192,"max":[143],"min":[0],"type":"SCALAR"},{"bufferView":36,"componentType":5126,"count":80,"max":[0.1099262535572052,1.0951756238937378,0.37487876415252686],"min":[-0.09375,0.8139256238937378,0.25042998790740967],"type":"VEC3"},{"bufferView":37,"componentType":5126,"count":80,"max":[0.9715556502342224,1,0.9941771626472473],"min":[-0.9913402795791626,-1,-0.9915404319763184],"type":"VEC3"},{"bufferView":38,"componentType":5126,"count":80,"max":[0.5411956310272217,0.5411956310272217],"min":[0,0],"type":"VEC2"},{"bufferView":39,"componentType":5123,"count":96,"max":[79],"min":[0],"type":"SCALAR"},{"bufferView":40,"componentType":5126,"count":80,"max":[0.1099262535572052,1.2201756238937378,0.37487876415252686],"min":[-0.09375,1.065982460975647,0.25042998790740967],"type":"VEC3"},{"bufferView":41,"componentType":5126,"count":80,"max":[0.9295495748519897,1,0.9632849097251892],"min":[-0.901561439037323,-1,-0.9778618216514587],"type":"VEC3"},{"bufferView":42,"componentType":5126,"count":80,"max":[0.5411956310272217,0.5411956310272217],"min":[0,0],"type":"VEC2"},{"bufferView":43,"componentType":5123,"count":96,"max":[79],"min":[0],"type":"SCALAR"},{"bufferView":44,"componentType":5126,"count":80,"max":[0.0625,1.2201756238937378,0.36706626415252686],"min":[-0.0625,1.0951756238937378,0.25769126415252686],"type":"VEC3"},{"bufferView":45,"componentType":5126,"count":80,"max":[0.9863941669464111,1,0.9895327687263489],"min":[-0.9863941669464111,-1,-0.9895327687263489],"type":"VEC3"},{"bufferView":46,"componentType":5126,"count":80,"max":[0.5411956310272217,0.5411956310272217],"min":[0,0],"type":"VEC2"},{"bufferView":47,"componentType":5123,"count":96,"max":[79],"min":[0],"type":"SCALAR"},{"bufferView":48,"componentType":5126,"count":50,"max":[0.07347312569618225,0.0625,-0.36024561524391174],"min":[-0.07347312569618225,-0.046875,-0.515625],"type":"VEC3"},{"bufferView":49,"componentType":5126,"count":50,"max":[0.9510563611984253,0.9901334047317505,0.809017539024353],"min":[-0.9492452144622803,-0.9805806875228882,-0.9805806875228882],"type":"VEC3"},{"bufferView":50,"componentType":5126,"count":50,"max":[0.09081249684095383,0.5],"min":[0,0],"type":"VEC2"},{"bufferView":51,"componentType":5123,"count":60,"max":[49],"min":[0],"type":"SCALAR"},{"bufferView":52,"componentType":5126,"count":144,"max":[0.0625,1.0951756238937378,0.36706626415252686],"min":[-0.12860846519470215,0.7201756238937378,0.25769126415252686],"type":"VEC3"},{"bufferView":53,"componentType":5126,"count":144,"max":[0.9984604120254517,1,0.9988205432891846],"min":[-0.9997906684875488,-1,-0.9988205432891846],"type":"VEC3"},{"bufferView":54,"componentType":5126,"count":144,"max":[0.5411956310272217,0.5411956310272217],"min":[0,0],"type":"VEC2"},{"bufferView":55,"componentType":5123,"count":192,"max":[143],"min":[0],"type":"SCALAR"},{"bufferView":56,"componentType":5126,"count":51,"max":[0.1875,0.2288612574338913,0.078125],"min":[0.09292124956846237,0.01875000074505806,-0.078125],"type":"VEC3"},{"bufferView":57,"componentType":5126,"count":51,"max":[0.9886930584907532,0.5688449740409851,0.9727458953857422],"min":[-0.9585306644439697,0.03344922140240669,-0.9727458953857422],"type":"VEC3"},{"bufferView":58,"componentType":5126,"count":51,"max":[0.0625,0.08749997615814209],"min":[0,0],"type":"VEC2"},{"bufferView":59,"componentType":5123,"count":69,"max":[50],"min":[0],"type":"SCALAR"},{"bufferView":60,"componentType":5126,"count":34,"max":[0.25,0.06484375149011612,0.046875],"min":[0.15625,-0.09296874701976776,-0.046875],"type":"VEC3"},{"bufferView":61,"componentType":5126,"count":34,"max":[1,0.8048028945922852,0.9805806875228882],"min":[-0.5935421586036682,-0.7525767087936401,-0.9805806875228882],"type":"VEC3"},{"bufferView":62,"componentType":5126,"count":34,"max":[0.0625,0.3500000238418579],"min":[0,0.08749997615814209],"type":"VEC2"},{"bufferView":63,"componentType":5123,"count":48,"max":[33],"min":[0],"type":"SCALAR"},{"bufferView":64,"componentType":5126,"count":56,"max":[0.140625,-0.09296874701976776,0.046875],"min":[-0.052734375,-0.25927749276161194,-0.046875],"type":"VEC3"},{"bufferView":65,"componentType":5126,"count":56,"max":[0.7603761553764343,0.7964386940002441,1],"min":[-0.9994482398033142,-0.8660300970077515,-1],"type":"VEC3"},{"bufferView":66,"componentType":5126,"count":56,"max":[0.0625,0.3882812261581421],"min":[0,0.3500000238418579],"type":"VEC2"},{"bufferView":67,"componentType":5123,"count":78,"max":[55],"min":[0],"type":"SCALAR"},{"bufferView":68,"componentType":5126,"count":118,"max":[0.171875,-0.6792968511581421,0.0625],"min":[0.044921875,-0.859375,-0.0625],"type":"VEC3"},{"bufferView":69,"componentType":5126,"count":118,"max":[1,0.9251294732093811,1],"min":[-0.999096155166626,-1,-1],"type":"VEC3"},{"bufferView":70,"componentType":5126,"count":118,"max":[0.0625,0.4375],"min":[0,0],"type":"VEC2"},{"bufferView":71,"componentType":5123,"count":168,"max":[117],"min":[0],"type":"SCALAR"},{"bufferView":72,"componentType":5126,"count":223,"max":[0.1875,0.22572749853134155,0.078125],"min":[-0.05565749853849411,-0.6792968511581421,-0.078125],"type":"VEC3"},{"bufferView":73,"componentType":5126,"count":223,"max":[1,0.9216631054878235,1],"min":[-0.9652665257453918,-0.9628902077674866,-1],"type":"VEC3"},{"bufferView":74,"componentType":5126,"count":223,"max":[0.0625,0.39375001192092896],"min":[0,0],"type":"VEC2"},{"bufferView":75,"componentType":5123,"count":315,"max":[222],"min":[0],"type":"SCALAR"},{"bufferView":76,"componentType":5126,"count":24,"max":[0.125,-0.19584937393665314,0.046875],"min":[0.07373062521219254,-0.6792968511581421,-0.046875],"type":"VEC3"},{"bufferView":77,"componentType":5126,"count":24,"max":[1,0,1],"min":[-0.9999998211860657,-0.000627312227152288,-1],"type":"VEC3"},{"bufferView":78,"componentType":5126,"count":24,"max":[0.09375,0.4834499955177307],"min":[0,0],"type":"VEC2"},{"bufferView":79,"componentType":5123,"count":36,"max":[23],"min":[0],"type":"SCALAR"},{"bufferView":80,"componentType":5126,"count":84,"max":[0.1395031213760376,0.234375,0.09375],"min":[-0.1082531213760376,0,-0.09375],"type":"VEC3"},{"bufferView":81,"componentType":5126,"count":84,"max":[0.7761089205741882,1,0.9329097270965576],"min":[-0.9727692604064941,-0.9795918464660645,-0.9513195157051086],"type":"VEC3"},{"bufferView":82,"componentType":5126,"count":84,"max":[0.1082562506198883,0.25],"min":[0,0],"type":"VEC2"},{"bufferView":83,"componentType":5123,"count":108,"max":[83],"min":[0],"type":"SCALAR"},{"bufferView":84,"componentType":5126,"count":22,"max":[0.03125,0.21875,0.03125],"min":[-0.03125,0.015625,-0.04153062403202057],"type":"VEC3"},{"bufferView":85,"componentType":5126,"count":22,"max":[0.946715772151947,0.7466496825218201,0.9072647094726562],"min":[-1,-0.8944271802902222,-0.9682331681251526],"type":"VEC3"},{"bufferView":86,"componentType":5126,"count":22,"max":[0.25,0.25],"min":[0,0],"type":"VEC2"},{"bufferView":87,"componentType":5123,"count":30,"max":[21],"min":[0],"type":"SCALAR"},{"bufferView":88,"componentType":5126,"count":22,"max":[-0.09375,0.15625,0.078125],"min":[-0.15625,-0.046875,0.0053443750366568565],"type":"VEC3"},{"bufferView":89,"componentType":5126,"count":22,"max":[0.946715772151947,0.7466496825218201,0.9072647094726562],"min":[-1,-0.8944271802902222,-0.9682331681251526],"type":"VEC3"},{"bufferView":90,"componentType":5126,"count":22,"max":[0.25,0.25],"min":[0,0],"type":"VEC2"},{"bufferView":91,"componentType":5123,"count":30,"max":[21],"min":[0],"type":"SCALAR"},{"bufferView":92,"componentType":5126,"count":22,"max":[-0.09375,0.15625,-0.0053443750366568565],"min":[-0.15625,-0.046875,-0.078125],"type":"VEC3"},{"bufferView":93,"componentType":5126,"count":22,"max":[0.946715772151947,0.7466496825218201,0.9682331681251526],"min":[-1,-0.8944271802902222,-0.9072647094726562],"type":"VEC3"},{"bufferView":94,"componentType":5126,"count":22,"max":[0.25,0.25],"min":[0,0],"type":"VEC2"},{"bufferView":95,"componentType":5123,"count":30,"max":[21],"min":[0],"type":"SCALAR"},{"bufferView":96,"componentType":5126,"count":24,"max":[0.14842499792575836,0.18969812989234924,0],"min":[-0.046875,0.0625,-0.09375],"type":"VEC3"},{"bufferView":97,"componentType":5126,"count":24,"max":[0.8463132977485657,0.9956269264221191,0.9334842562675476],"min":[-0.9920827746391296,-1,-0.9587900042533875],"type":"VEC3"},{"bufferView":98,"componentType":5126,"count":24,"max":[0.25,0.25],"min":[0,0],"type":"VEC2"},{"bufferView":99,"componentType":5123,"count":36,"max":[23],"min":[0],"type":"SCALAR"},{"bufferView":100,"componentType":5126,"count":38,"max":[0.12297750264406204,0.21739187836647034,0.1278737485408783],"min":[-0.171875,-0.046875,-0.0006787499878555536],"type":"VEC3"},{"bufferView":101,"componentType":5126,"count":38,"max":[0.9684504866600037,0.9945811629295349,0.9340856671333313],"min":[-0.8865558505058289,-0.9296106696128845,-0.9999857544898987],"type":"VEC3"},{"bufferView":102,"componentType":5126,"count":38,"max":[0.25,0.25],"min":[0,0],"type":"VEC2"},{"bufferView":103,"componentType":5123,"count":48,"max":[37],"min":[0],"type":"SCALAR"},{"bufferView":104,"componentType":5126,"count":22,"max":[0.03125,0.21875,0.04153062403202057],"min":[-0.03125,0.015625,-0.03125],"type":"VEC3"},{"bufferView":105,"componentType":5126,"count":22,"max":[0.946715772151947,0.7466496825218201,0.9682331681251526],"min":[-1,-0.8944271802902222,-0.9072647094726562],"type":"VEC3"},{"bufferView":106,"componentType":5126,"count":22,"max":[0.25,0.25],"min":[0,0],"type":"VEC2"},{"bufferView":107,"componentType":5123,"count":30,"max":[21],"min":[0],"type":"SCALAR"},{"bufferView":108,"componentType":5126,"count":24,"max":[0.15163250267505646,0.18992124497890472,0.09375],"min":[-0.046875,0.0625,0],"type":"VEC3"},{"bufferView":109,"componentType":5126,"count":24,"max":[0.8509557247161865,0.995893120765686,0.9587900042533875],"min":[-1,-1,-0.9516682624816895],"type":"VEC3"},{"bufferView":110,"componentType":5126,"count":24,"max":[0.25,0.25],"min":[0,0],"type":"VEC2"},{"bufferView":111,"componentType":5123,"count":36,"max":[23],"min":[0],"type":"SCALAR"},{"bufferView":112,"componentType":5126,"count":38,"max":[0.12319937348365784,0.21739187836647034,0.0006787499878555536],"min":[-0.171875,-0.046875,-0.1278737485408783],"type":"VEC3"},{"bufferView":113,"componentType":5126,"count":38,"max":[0.9684504866600037,0.9945811629295349,0.9999857544898987],"min":[-0.8865558505058289,-0.945705771446228,-0.9340856671333313],"type":"VEC3"},{"bufferView":114,"componentType":5126,"count":38,"max":[0.25,0.25],"min":[0,0],"type":"VEC2"},{"bufferView":115,"componentType":5123,"count":48,"max":[37],"min":[0],"type":"SCALAR"},{"bufferView":116,"componentType":5126,"count":30,"max":[0.15625,0.171875,0.0625],"min":[-0.140625,0,-0.0625],"type":"VEC3"},{"bufferView":117,"componentType":5126,"count":30,"max":[0.9045340418815613,1,0.9971775412559509],"min":[-0.9647638201713562,-0.6704954504966736,-0.9971775412559509],"type":"VEC3"},{"bufferView":118,"componentType":5126,"count":30,"max":[1,1],"min":[0,0],"type":"VEC2"},{"bufferView":119,"componentType":5123,"count":36,"max":[29],"min":[0],"type":"SCALAR"},{"bufferView":120,"componentType":5126,"count":64,"max":[0.0078125,0.3125,0.078125],"min":[-0.0078125,0.234375,-0.0625],"type":"VEC3"},{"bufferView":121,"componentType":5126,"count":64,"max":[1,0.8574929237365723,1],"min":[-1,-1,-1],"type":"VEC3"},{"bufferView":122,"componentType":5126,"count":64,"max":[1,1],"min":[0,0],"type":"VEC2"},{"bufferView":123,"componentType":5123,"count":96,"max":[63],"min":[0],"type":"SCALAR"},{"bufferView":124,"componentType":5126,"count":192,"max":[0.0078125,0.375,0.140625],"min":[-0.0234375,0.16843049228191376,-0.125],"type":"VEC3"},{"bufferView":125,"componentType":5126,"count":192,"max":[1,0.9486833214759827,1],"min":[-1,-1,-1],"type":"VEC3"},{"bufferView":126,"componentType":5126,"count":192,"max":[1,1],"min":[0,0],"type":"VEC2"},{"bufferView":127,"componentType":5123,"count":288,"max":[191],"min":[0],"type":"SCALAR"},{"bufferView":128,"componentType":5126,"count":40,"max":[0.1875,0.53125,0.171875],"min":[-0.09375,-0.203125,-0.09375],"type":"VEC3"},{"bufferView":129,"componentType":5126,"count":40,"max":[0.9363417625427246,0.7009657621383667,0.986581027507782],"min":[-0.8906100392341614,-1,-0.9748165011405945],"type":"VEC3"},{"bufferView":130,"componentType":5126,"count":40,"max":[1,1],"min":[0,0],"type":"VEC2"},{"bufferView":131,"componentType":5123,"count":60,"max":[39],"min":[0],"type":"SCALAR"},{"bufferView":132,"componentType":5126,"count":40,"max":[0.1875,0.28125,0.140625],"min":[-0.1875,0.125,-0.140625],"type":"VEC3"},{"bufferView":133,"componentType":5126,"count":40,"max":[0.46671363711357117,0.9662337899208069,0.1994502693414688],"min":[-0.7988776564598083,-0.9828721880912781,-0.1994502693414688],"type":"VEC3"},{"bufferView":134,"componentType":5126,"count":40,"max":[1,1],"min":[0,0],"type":"VEC2"},{"bufferView":135,"componentType":5123,"count":60,"max":[39],"min":[0],"type":"SCALAR"},{"bufferView":136,"componentType":5126,"count":24,"max":[0.171875,0.109375,0.03125],"min":[-0.171875,0.015625,-0.171875],"type":"VEC3"},{"bufferView":137,"componentType":5126,"count":24,"max":[0.894274115562439,0.9883716702461243,0.8384436368942261],"min":[-0.894274115562439,-0.9333456158638,-1],"type":"VEC3"},{"bufferView":138,"componentType":5126,"count":24,"max":[1,1],"min":[0,0],"type":"VEC2"},{"bufferView":139,"componentType":5123,"count":36,"max":[23],"min":[0],"type":"SCALAR"},{"bufferView":140,"componentType":5126,"count":80,"max":[0.15625,1.1242963075637817,0.46862876415252686],"min":[-0.15625,0.6576756238937378,0.17230500280857086],"type":"VEC3"},{"bufferView":141,"componentType":5126,"count":80,"max":[0.980408251285553,1,0.9773048162460327],"min":[-0.980408251285553,-1,-0.9875488877296448],"type":"VEC3"},{"bufferView":142,"componentType":5126,"count":80,"max":[0.5411956310272217,0.5411956310272217],"min":[0,0],"type":"VEC2"},{"bufferView":143,"componentType":5123,"count":96,"max":[79],"min":[0],"type":"SCALAR"},{"bufferView":144,"componentType":5126,"count":80,"max":[0.15625,1.2201756238937378,0.46862876415252686],"min":[-0.15625,1.0951756238937378,0.17230500280857086],"type":"VEC3"},{"bufferView":145,"componentType":5126,"count":80,"max":[0.7751576900482178,1,0.8446981310844421],"min":[-0.7751576900482178,-1,-0.8528355956077576],"type":"VEC3"},{"bufferView":146,"componentType":5126,"count":80,"max":[0.5411956310272217,0.5411956310272217],"min":[0,0],"type":"VEC2"},{"bufferView":147,"componentType":5123,"count":96,"max":[79],"min":[0],"type":"SCALAR"},{"bufferView":148,"componentType":5126,"count":80,"max":[0.09375,1.2201756238937378,0.40612876415252686],"min":[-0.09375,1.0951756238937378,0.21862874925136566],"type":"VEC3"},{"bufferView":149,"componentType":5126,"count":80,"max":[0.9701424837112427,1,0.9701424837112427],"min":[-0.9701424837112427,-1,-0.9701424837112427],"type":"VEC3"},{"bufferView":150,"componentType":5126,"count":80,"max":[0.5411956310272217,0.5411956310272217],"min":[0,0],"type":"VEC2"},{"bufferView":151,"componentType":5123,"count":96,"max":[79],"min":[0],"type":"SCALAR"},{"bufferView":152,"componentType":5126,"count":50,"max":[0.1342443823814392,0.1422787457704544,0.07377687841653824],"min":[-0.04943874850869179,-0.24461936950683594,-0.08069562166929245],"type":"VEC3"},{"bufferView":153,"componentType":5126,"count":50,"max":[0.8248701691627502,0.9861037135124207,0.9996981024742126],"min":[-0.8874357342720032,-0.6485369205474854,-0.8542731404304504],"type":"VEC3"},{"bufferView":154,"componentType":5126,"count":50,"max":[0.11352500319480896,0.28125],"min":[0,0],"type":"VEC2"},{"bufferView":155,"componentType":5123,"count":60,"max":[49],"min":[0],"type":"SCALAR"},{"bufferView":156,"componentType":5126,"count":24,"max":[0.03125,0.5,0.078125],"min":[-0.1875,-0.03125,-0.078125],"type":"VEC3"},{"bufferView":157,"componentType":5126,"count":24,"max":[0.9982743859291077,0.8320503234863281,0.9890573024749756],"min":[-0.9656157493591309,-1,-0.9890573024749756],"type":"VEC3"},{"bufferView":158,"componentType":5126,"count":24,"max":[1,1],"min":[0,0],"type":"VEC2"},{"bufferView":159,"componentType":5123,"count":36,"max":[23],"min":[0],"type":"SCALAR"},{"bufferView":160,"componentType":5126,"count":112,"max":[0.09375,1.1889256238937378,0.40612876415252686],"min":[-0.140625,0.5326756238937378,0.21862874925136566],"type":"VEC3"},{"bufferView":161,"componentType":5126,"count":112,"max":[0.9984603524208069,1,0.9984603524208069],"min":[-0.9984603524208069,-1,-0.9984603524208069],"type":"VEC3"},{"bufferView":162,"componentType":5126,"count":112,"max":[0.5411956310272217,0.5411956310272217],"min":[0,0],"type":"VEC2"},{"bufferView":163,"componentType":5123,"count":144,"max":[111],"min":[0],"type":"SCALAR"},{"bufferView":164,"componentType":5126,"count":80,"max":[0.15625,1.1242963075637817,-0.17230500280857086],"min":[-0.15625,0.6576756238937378,-0.46862876415252686],"type":"VEC3"},{"bufferView":165,"componentType":5126,"count":80,"max":[0.980408251285553,1,0.9875488877296448],"min":[-0.980408251285553,-1,-0.9773048162460327],"type":"VEC3"},{"bufferView":166,"componentType":5126,"count":80,"max":[0.5411956310272217,0.5411956310272217],"min":[0,0],"type":"VEC2"},{"bufferView":167,"componentType":5123,"count":96,"max":[79],"min":[0],"type":"SCALAR"},{"bufferView":168,"componentType":5126,"count":80,"max":[0.15625,1.2201756238937378,-0.17230500280857086],"min":[-0.15625,1.0951756238937378,-0.46862876415252686],"type":"VEC3"},{"bufferView":169,"componentType":5126,"count":80,"max":[0.7751576900482178,1,0.8528355956077576],"min":[-0.7751576900482178,-1,-0.8446981310844421],"type":"VEC3"},{"bufferView":170,"componentType":5126,"count":80,"max":[0.5411956310272217,0.5411956310272217],"min":[0,0],"type":"VEC2"},{"bufferView":171,"componentType":5123,"count":96,"max":[79],"min":[0],"type":"SCALAR"},{"bufferView":172,"componentType":5126,"count":80,"max":[0.09375,1.2201756238937378,-0.21862874925136566],"min":[-0.09375,1.0951756238937378,-0.40612876415252686],"type":"VEC3"},{"bufferView":173,"componentType":5126,"count":80,"max":[0.9701424837112427,1,0.9701424837112427],"min":[-0.9701424837112427,-1,-0.9701424837112427],"type":"VEC3"},{"bufferView":174,"componentType":5126,"count":80,"max":[0.5411956310272217,0.5411956310272217],"min":[0,0],"type":"VEC2"},{"bufferView":175,"componentType":5123,"count":96,"max":[79],"min":[0],"type":"SCALAR"},{"bufferView":176,"componentType":5126,"count":50,"max":[0.1342443823814392,0.1422787457704544,0.08069562166929245],"min":[-0.04943874850869179,-0.24461936950683594,-0.07377687841653824],"type":"VEC3"},{"bufferView":177,"componentType":5126,"count":50,"max":[0.8248701691627502,0.9861037135124207,0.8542731404304504],"min":[-0.8874357342720032,-0.6485369205474854,-0.9996981024742126],"type":"VEC3"},{"bufferView":178,"componentType":5126,"count":50,"max":[0.11352500319480896,0.28125],"min":[0,0],"type":"VEC2"},{"bufferView":179,"componentType":5123,"count":60,"max":[49],"min":[0],"type":"SCALAR"},{"bufferView":180,"componentType":5126,"count":24,"max":[0.03125,0.5,0.078125],"min":[-0.1875,-0.03125,-0.078125],"type":"VEC3"},{"bufferView":181,"componentType":5126,"count":24,"max":[0.9982743859291077,0.8320503234863281,0.9890573024749756],"min":[-0.9656157493591309,-1,-0.9890573024749756],"type":"VEC3"},{"bufferView":182,"componentType":5126,"count":24,"max":[1,1],"min":[0,0],"type":"VEC2"},{"bufferView":183,"componentType":5123,"count":36,"max":[23],"min":[0],"type":"SCALAR"},{"bufferView":184,"componentType":5126,"count":112,"max":[0.09375,1.1733006238937378,-0.21862874925136566],"min":[-0.140625,0.5326756238937378,-0.40612876415252686],"type":"VEC3"},{"bufferView":185,"componentType":5126,"count":112,"max":[0.9985681176185608,1,0.9985681176185608],"min":[-0.9980525970458984,-1,-0.9985681176185608],"type":"VEC3"},{"bufferView":186,"componentType":5126,"count":112,"max":[0.5411956310272217,0.5411956310272217],"min":[0,0],"type":"VEC2"},{"bufferView":187,"componentType":5123,"count":144,"max":[111],"min":[0],"type":"SCALAR"}],"materials":[{"pbrMetallicRoughness":{"metallicFactor":0,"roughnessFactor":1},"alphaMode":"MASK","alphaCutoff":0.05,"doubleSided":true},{"pbrMetallicRoughness":{"metallicFactor":0,"roughnessFactor":1},"alphaMode":"MASK","alphaCutoff":0.05,"doubleSided":true},{"pbrMetallicRoughness":{"metallicFactor":0,"roughnessFactor":1},"alphaMode":"MASK","alphaCutoff":0.05,"doubleSided":true},{"pbrMetallicRoughness":{"metallicFactor":0,"roughnessFactor":1},"alphaMode":"MASK","alphaCutoff":0.05,"doubleSided":true},{"pbrMetallicRoughness":{"metallicFactor":0,"roughnessFactor":1},"alphaMode":"MASK","alphaCutoff":0.05,"doubleSided":true},{"pbrMetallicRoughness":{"metallicFactor":0,"roughnessFactor":1},"alphaMode":"MASK","alphaCutoff":0.05,"doubleSided":true},{"pbrMetallicRoughness":{"metallicFactor":0,"roughnessFactor":1},"alphaMode":"MASK","alphaCutoff":0.05,"doubleSided":true},{"pbrMetallicRoughness":{"metallicFactor":0,"roughnessFactor":1},"alphaMode":"MASK","alphaCutoff":0.05,"doubleSided":true}],"meshes":[{"primitives":[{"mode":4,"attributes":{"POSITION":0,"NORMAL":1,"TEXCOORD_0":2},"indices":3,"material":0}]},{"primitives":[{"mode":4,"attributes":{"POSITION":4,"NORMAL":5,"TEXCOORD_0":6},"indices":7,"material":1}]},{"primitives":[{"mode":4,"attributes":{"POSITION":8,"NORMAL":9,"TEXCOORD_0":10},"indices":11,"material":0}]},{"primitives":[{"mode":4,"attributes":{"POSITION":12,"NORMAL":13,"TEXCOORD_0":14},"indices":15,"material":0}]},{"primitives":[{"mode":4,"attributes":{"POSITION":16,"NORMAL":17,"TEXCOORD_0":18},"indices":19,"material":2}]},{"primitives":[{"mode":4,"attributes":{"POSITION":20,"NORMAL":21,"TEXCOORD_0":22},"indices":23,"material":2}]},{"primitives":[{"mode":4,"attributes":{"POSITION":24,"NORMAL":25,"TEXCOORD_0":26},"indices":27,"material":2}]},{"primitives":[{"mode":4,"attributes":{"POSITION":28,"NORMAL":29,"TEXCOORD_0":30},"indices":31,"material":3}]},{"primitives":[{"mode":4,"attributes":{"POSITION":32,"NORMAL":33,"TEXCOORD_0":34},"indices":35,"material":2}]},{"primitives":[{"mode":4,"attributes":{"POSITION":36,"NORMAL":37,"TEXCOORD_0":38},"indices":39,"material":2}]},{"primitives":[{"mode":4,"attributes":{"POSITION":40,"NORMAL":41,"TEXCOORD_0":42},"indices":43,"material":2}]},{"primitives":[{"mode":4,"attributes":{"POSITION":44,"NORMAL":45,"TEXCOORD_0":46},"indices":47,"material":2}]},{"primitives":[{"mode":4,"attributes":{"POSITION":48,"NORMAL":49,"TEXCOORD_0":50},"indices":51,"material":3}]},{"primitives":[{"mode":4,"attributes":{"POSITION":52,"NORMAL":53,"TEXCOORD_0":54},"indices":55,"material":2}]},{"primitives":[{"mode":4,"attributes":{"POSITION":56,"NORMAL":57,"TEXCOORD_0":58},"indices":59,"material":4}]},{"primitives":[{"mode":4,"attributes":{"POSITION":60,"NORMAL":61,"TEXCOORD_0":62},"indices":63,"material":4}]},{"primitives":[{"mode":4,"attributes":{"POSITION":64,"NORMAL":65,"TEXCOORD_0":66},"indices":67,"material":4}]},{"primitives":[{"mode":4,"attributes":{"POSITION":68,"NORMAL":69,"TEXCOORD_0":70},"indices":71,"material":4}]},{"primitives":[{"mode":4,"attributes":{"POSITION":72,"NORMAL":73,"TEXCOORD_0":74},"indices":75,"material":4}]},{"primitives":[{"mode":4,"attributes":{"POSITION":76,"NORMAL":77,"TEXCOORD_0":78},"indices":79,"material":4}]},{"primitives":[{"mode":4,"attributes":{"POSITION":80,"NORMAL":81,"TEXCOORD_0":82},"indices":83,"material":0}]},{"primitives":[{"mode":4,"attributes":{"POSITION":84,"NORMAL":85,"TEXCOORD_0":86},"indices":87,"material":5}]},{"primitives":[{"mode":4,"attributes":{"POSITION":88,"NORMAL":89,"TEXCOORD_0":90},"indices":91,"material":5}]},{"primitives":[{"mode":4,"attributes":{"POSITION":92,"NORMAL":93,"TEXCOORD_0":94},"indices":95,"material":5}]},{"primitives":[{"mode":4,"attributes":{"POSITION":96,"NORMAL":97,"TEXCOORD_0":98},"indices":99,"material":0}]},{"primitives":[{"mode":4,"attributes":{"POSITION":100,"NORMAL":101,"TEXCOORD_0":102},"indices":103,"material":0}]},{"primitives":[{"mode":4,"attributes":{"POSITION":104,"NORMAL":105,"TEXCOORD_0":106},"indices":107,"material":5}]},{"primitives":[{"mode":4,"attributes":{"POSITION":108,"NORMAL":109,"TEXCOORD_0":110},"indices":111,"material":0}]},{"primitives":[{"mode":4,"attributes":{"POSITION":112,"NORMAL":113,"TEXCOORD_0":114},"indices":115,"material":0}]},{"primitives":[{"mode":4,"attributes":{"POSITION":116,"NORMAL":117,"TEXCOORD_0":118},"indices":119,"material":6}]},{"primitives":[{"mode":4,"attributes":{"POSITION":120,"NORMAL":121,"TEXCOORD_0":122},"indices":123,"material":4}]},{"primitives":[{"mode":4,"attributes":{"POSITION":124,"NORMAL":125,"TEXCOORD_0":126},"indices":127,"material":4}]},{"primitives":[{"mode":4,"attributes":{"POSITION":128,"NORMAL":129,"TEXCOORD_0":130},"indices":131,"material":3}]},{"primitives":[{"mode":4,"attributes":{"POSITION":132,"NORMAL":133,"TEXCOORD_0":134},"indices":135,"material":0}]},{"primitives":[{"mode":4,"attributes":{"POSITION":136,"NORMAL":137,"TEXCOORD_0":138},"indices":139,"material":7}]},{"primitives":[{"mode":4,"attributes":{"POSITION":140,"NORMAL":141,"TEXCOORD_0":142},"indices":143,"material":2}]},{"primitives":[{"mode":4,"attributes":{"POSITION":144,"NORMAL":145,"TEXCOORD_0":146},"indices":147,"material":2}]},{"primitives":[{"mode":4,"attributes":{"POSITION":148,"NORMAL":149,"TEXCOORD_0":150},"indices":151,"material":2}]},{"primitives":[{"mode":4,"attributes":{"POSITION":152,"NORMAL":153,"TEXCOORD_0":154},"indices":155,"material":7}]},{"primitives":[{"mode":4,"attributes":{"POSITION":156,"NORMAL":157,"TEXCOORD_0":158},"indices":159,"material":0}]},{"primitives":[{"mode":4,"attributes":{"POSITION":160,"NORMAL":161,"TEXCOORD_0":162},"indices":163,"material":2}]},{"primitives":[{"mode":4,"attributes":{"POSITION":164,"NORMAL":165,"TEXCOORD_0":166},"indices":167,"material":2}]},{"primitives":[{"mode":4,"attributes":{"POSITION":168,"NORMAL":169,"TEXCOORD_0":170},"indices":171,"material":2}]},{"primitives":[{"mode":4,"attributes":{"POSITION":172,"NORMAL":173,"TEXCOORD_0":174},"indices":175,"material":2}]},{"primitives":[{"mode":4,"attributes":{"POSITION":176,"NORMAL":177,"TEXCOORD_0":178},"indices":179,"material":7}]},{"primitives":[{"mode":4,"attributes":{"POSITION":180,"NORMAL":181,"TEXCOORD_0":182},"indices":183,"material":0}]},{"primitives":[{"mode":4,"attributes":{"POSITION":184,"NORMAL":185,"TEXCOORD_0":186},"indices":187,"material":2}]}]}